<?xml version="1.0" encoding="UTF-8" standalone="no"?>
<!-- Created with Inkscape (http://www.inkscape.org/) -->

<svg
   width="210mm"
   height="297mm"
   viewBox="0 0 210 297"
   version="1.1"
   id="svg1"
   inkscape:version="1.3.2 (091e20e, 2023-11-25, custom)"
   sodipodi:docname="жопа.svg"
   xmlns:inkscape="http://www.inkscape.org/namespaces/inkscape"
   xmlns:sodipodi="http://sodipodi.sourceforge.net/DTD/sodipodi-0.dtd"
   xmlns:xlink="http://www.w3.org/1999/xlink"
   xmlns="http://www.w3.org/2000/svg"
   xmlns:svg="http://www.w3.org/2000/svg">
  <sodipodi:namedview
     id="namedview1"
     pagecolor="#ffffff"
     bordercolor="#000000"
     borderopacity="0.25"
     inkscape:showpageshadow="2"
     inkscape:pageopacity="0.0"
     inkscape:pagecheckerboard="0"
     inkscape:deskcolor="#d1d1d1"
     inkscape:document-units="mm"
     inkscape:zoom="0.36569515"
     inkscape:cx="-54.690362"
     inkscape:cy="378.73076"
     inkscape:window-width="1920"
     inkscape:window-height="1017"
     inkscape:window-x="-8"
     inkscape:window-y="-8"
     inkscape:window-maximized="1"
     inkscape:current-layer="layer1">
    <inkscape:page
       x="0"
       y="0"
       width="210"
       height="297"
       id="page1"
       margin="0"
       bleed="0" />
    <inkscape:page
       x="-102.01461"
       y="231.16079"
       width="64.030449"
       height="35.813643"
       id="page2" />
    <inkscape:page
       x="-165.29532"
       y="166.88153"
       width="60"
       height="60"
       id="page71"
       margin="0"
       bleed="0" />
    <inkscape:page
       x="-96.436099"
       y="127.64354"
       width="59.856889"
       height="56.275711"
       id="page80" />
    <inkscape:page
       x="-159.61836"
       y="45.020569"
       width="60"
       height="60"
       id="page81"
       margin="0"
       bleed="0" />
  </sodipodi:namedview>
  <defs
     id="defs1">
    <pattern
       inkscape:collect="always"
       xlink:href="#pattern78"
       preserveAspectRatio="xMidYMid"
       id="pattern80"
       patternTransform="matrix(0.26458333,0,0,0.26458333,-161.40646,166.88153)" />
    <pattern
       inkscape:collect="always"
       xlink:href="#pattern78"
       preserveAspectRatio="xMidYMid"
       id="pattern79"
       patternTransform="matrix(0.21,0,0,0.21,-388.6434,384.1998)"
       x="0"
       y="0" />
    <pattern
       inkscape:collect="always"
       xlink:href="#Wave"
       preserveAspectRatio="xMidYMid"
       id="pattern65"
       patternTransform="matrix(0,-0.75590551,0.75590551,0,385.90888,-873.33673)"
       x="0"
       y="0" />
    <pattern
       patternUnits="userSpaceOnUse"
       width="24"
       height="10"
       preserveAspectRatio="xMidYMid"
       id="Wave"
       style="fill:#000000"
       x="0"
       y="0"
       inkscape:collect="always"
       inkscape:isstock="true"
       inkscape:label="Волна">
      <g
         id="wave_g"
         style="display:inline">
        <path
           d="M 12,-2 C 9.1666695,-2 7.1679672,-0.56445187 5.4179687,0.68554687 3.6679703,1.9355456 2.1666645,3 0,3 V 5 C 2.8333305,5 4.8320328,3.5644519 6.5820312,2.3144531 8.3320297,1.0644544 9.8333355,0 12,0 14.166665,0 15.667971,1.0644544 17.417969,2.3144531 19.167967,3.5644519 21.166669,5 24,5 V 3 C 21.833335,3 20.332029,1.9355456 18.582031,0.68554687 16.832033,-0.56445189 14.833331,-2 12,-2 Z"
           id="path64" />
        <path
           d="M 12,3 C 9.1666695,3 7.1679672,4.4355481 5.4179687,5.6855469 3.6679703,6.9355456 2.1666645,8 0,8 v 2 C 2.8333305,10 4.8320328,8.5644519 6.5820312,7.3144531 8.3320297,6.0644544 9.8333355,5 12,5 14.166665,5 15.667971,6.0644544 17.417969,7.3144531 19.167967,8.5644519 21.166669,10 24,10 V 8 C 21.833335,8 20.332029,6.9355456 18.582031,5.6855469 16.832033,4.4355481 14.833331,3 12,3 Z"
           id="path4" />
        <path
           d="M 12,8 C 9.1666695,8 7.1679672,9.4355481 5.4179687,10.685547 3.6679703,11.935546 2.1666645,13 0,13 v 2 C 2.8333305,15 4.8320328,13.564452 6.5820312,12.314453 8.3320297,11.064454 9.8333355,10 12,10 c 2.166665,0 3.667971,1.064454 5.417969,2.314453 C 19.167967,13.564452 21.166669,15 24,15 V 13 C 21.833335,13 20.332029,11.935546 18.582031,10.685547 16.832033,9.4355481 14.833331,8 12,8 Z"
           id="path5" />
      </g>
    </pattern>
    <pattern
       patternUnits="userSpaceOnUse"
       width="243.43871"
       height="140.62218"
       patternTransform="translate(-385.90888,873.33673)"
       preserveAspectRatio="xMidYMid"
       id="pattern70"
       style="fill:#000000"
       inkscape:label="pattern70">
      <rect
         style="opacity:1;fill:#0000ff;stroke-width:0.999999"
         id="rect3"
         width="242.34666"
         height="37.941441"
         x="0"
         y="0" />
      <path
         style="opacity:1;fill:#d40000;fill-opacity:1;stroke-width:0.342353;stroke-dasharray:none;paint-order:fill markers stroke"
         d="m 173.98743,103.19557 c 0.002,-0.92213 0.23276,-2.43168 0.51272,-3.354552 0.27996,-0.92287 0.50902,-2.12006 0.50902,-2.66042 0,-1.29656 1.251,-3.70892 4.30495,-8.30144 2.91274,-4.38016 4.4843,-6.33091 5.10028,-6.33091 0.24132,0 1.24434,-0.6053 2.22894,-1.34512 1.06373,-0.79927 2.36071,-1.44008 3.19611,-1.57913 0.77326,-0.1287 1.9998,-0.53504 2.72566,-0.90297 0.72585,-0.36793 2.41784,-0.893669 3.75996,-1.168309 1.34213,-0.27464 2.85699,-0.80116 3.36638,-1.17006 0.50938,-0.36889 1.12465,-0.67302 1.36726,-0.67585 0.24261,-0.003 1.03317,-0.21128 1.7568,-0.46322 1.31168,-0.45667 1.45712,-0.64555 3.85043,-5.00067 0.25829,-0.47 0.47055,-0.98066 0.47171,-1.13482 0.003,-0.45139 3.04896,-5.34978 4.72931,-7.60646 0.85016,-1.14174 2.41265,-2.7313 3.47222,-3.53235 1.05956,-0.80105 2.09688,-1.7293 2.30514,-2.06278 0.20827,-0.33349 1.12163,-1.03554 2.02971,-1.56012 0.90807,-0.52458 2.43694,-1.6883 3.39749,-2.58604 1.12679,-1.05312 2.27894,-1.77467 3.24724,-2.03362 0.82543,-0.22074 1.65461,-0.51936 1.84261,-0.66359 0.18799,-0.14422 0.95708,-0.35534 1.70907,-0.46915 0.75199,-0.1138 2.29016,-0.40464 3.41815,-0.64629 1.2817,-0.27459 3.29677,-0.37454 5.37278,-0.26651 l 3.32189,0.17286 -15.1145,12.67723 c -8.31298,6.97248 -23.34369,19.569859 -33.40159,27.994169 -10.0579,8.42431 -18.55627,15.548632 -18.88527,15.831822 -0.55842,0.48067 -0.59793,0.40346 -0.59447,-1.1617 z"
         id="path19" />
      <rect
         style="opacity:1;fill:#ffff00;stroke-width:0.999999"
         id="rect2"
         width="242.00485"
         height="97.759026"
         x="0.34184495"
         y="38.28323" />
      <ellipse
         style="opacity:1;fill:#0034ff;fill-opacity:1;stroke-width:0.999999"
         id="path9"
         cx="176.54732"
         cy="83.231903"
         rx="28.541533"
         ry="27.174274" />
      <path
         style="opacity:1;fill-opacity:1;stroke-width:1.00157;stroke-dasharray:none;paint-order:fill markers stroke"
         d="M 45.119561,49.563126 C 92.631809,7.1781051 92.29,7.5199256 92.29,7.5199256"
         id="path10" />
      <path
         style="opacity:1;fill-opacity:1;stroke-width:1.00157;stroke-dasharray:none;paint-order:fill markers stroke"
         d="M 96.39177,17.09071 51.955861,40.675945"
         id="path11" />
      <path
         style="opacity:1;fill-opacity:1;stroke-width:1.00157;stroke-dasharray:none;paint-order:fill markers stroke"
         d="M 50.246781,49.221305 87.504589,22.217941"
         id="path12" />
      <ellipse
         style="opacity:1;fill:#ff0000;stroke-width:0.999999"
         id="path3"
         cx="52.810413"
         cy="55.203041"
         rx="32.301495"
         ry="34.352383" />
      <path
         style="opacity:1;fill:#d40000;fill-opacity:1;stroke-width:1.00157;stroke-dasharray:none;paint-order:fill markers stroke"
         d="m 136.72592,136.38405 c 0.39674,-1.68657 -0.54588,-3.83138 0,-5.46897 0.0806,-0.24152 0.29186,-0.43382 0.34182,-0.68372 0.067,-0.33525 -0.10809,-0.7011 0,-1.02539 0.0359,-0.10809 0.26124,0.0809 0.34182,0 0.0806,-0.0809 -0.051,-0.24 0,-0.34167 0.18372,-0.36737 0.45575,-0.6836 0.68363,-1.0255 1.32577,-1.98859 1.71439,-2.39531 3.75996,-3.41809 1.60141,-0.80073 2.92032,-2.16238 4.44359,-3.07634 0.18606,-0.1115 0.83936,-0.23018 1.02544,-0.34167 0.35229,-0.21128 0.63044,-0.57075 1.02545,-0.68361 0.43822,-0.1251 0.91771,0.0748 1.36726,0 0.77387,-0.12888 1.58347,-0.54878 2.3927,-0.68364 1.56019,-0.26003 3.21314,-0.18444 4.78541,-0.34167 1.02591,0.26759 1.8007,-0.57985 2.73452,-0.68364 1.30434,-0.14475 7.35736,0.42312 8.20355,0 0.22787,-0.11376 0.12983,-0.54228 0.34182,-0.6836 0.18958,-0.12624 0.46744,0.0722 0.68362,0 0.15288,-0.051 0.18898,-0.29102 0.34182,-0.34167 2.6616,-0.88721 -3.01936,2.35472 2.05089,-1.02546 0.41922,-0.27931 1.52446,-0.47157 1.70907,-1.02542 0.11396,-0.34167 -0.057,-0.68365 0,-1.02547 0.4579,-2.74737 0.0367,-5.45525 0.34182,-8.20354 0.5167,-4.65036 0.19983,1.56201 0.68363,-3.75998 0.0516,-0.56735 -0.10189,-1.14856 0,-1.70907 0.12892,-0.70896 0.50885,-1.351784 0.68363,-2.050883 0.23509,-0.940347 -0.037,-2.192088 0.34182,-3.076309 1.32104,-3.082431 3.22777,-5.490066 5.12722,-8.203578 1.02999,-1.47137 1.85774,-3.745134 3.41816,-4.785411 0.51053,-0.340157 1.19854,-0.343181 1.70906,-0.683603 1.09378,-0.729184 2.14331,-1.914671 3.41816,-2.392705 0.75437,-0.282709 1.64465,-0.04271 2.39269,-0.34167 1.03153,-0.412611 1.71225,-0.929159 2.73453,-1.367282 1.06114,-0.454752 4.25709,-0.761272 4.7854,-1.025423 0.73488,-0.36737 1.30008,-1.033588 2.0509,-1.367244 0.31234,-0.138709 0.69677,0.09373 1.02543,0 0.48994,-0.139843 0.89416,-0.4944 1.36726,-0.683641 0.49417,-0.19767 0.46894,0.492926 1.02545,-0.34167 0.12639,-0.189732 -0.10189,-0.479811 0,-0.683641 0.051,-0.102047 0.27345,0.09109 0.34182,0 0.30573,-0.407622 0.42147,-0.93033 0.68363,-1.367244 0.42272,-0.704541 0.99982,-1.316031 1.36726,-2.050885 0.32225,-0.64456 0.39977,-1.38856 0.68363,-2.050885 0.32364,-0.755187 0.99982,-1.316031 1.36726,-2.050885 1.09319,-2.186419 2.60685,-4.159445 4.10177,-6.152693 1.21356,-1.618053 2.95509,-2.457524 4.4436,-3.759949 0.19174,-0.167811 0.16165,-0.503471 0.34182,-0.683641 1.1247,-1.124674 2.85709,-1.738772 4.10178,-2.734526 1.24171,-0.993336 2.16406,-2.240277 3.41815,-3.076309 0.19284,-0.128504 2.33635,-0.550904 2.73451,-0.683641 1.56281,-0.520932 -1.44801,-0.27137 1.02545,-0.683641 0.44955,-0.07483 0.91608,0.06425 1.36726,0 0.71336,-0.102047 1.34427,-0.542286 2.05089,-0.683603 0.33517,-0.0669 0.71971,0.152693 1.02545,0 0.14411,-0.07219 0.18893,-0.291023 0.34182,-0.341669 1.17808,-0.392693 7.55412,0 9.22899,0"
         id="path14" />
      <path
         style="opacity:1;fill:#d40000;fill-opacity:1;stroke-width:0.342353;stroke-dasharray:none;paint-order:fill markers stroke"
         d="m 220.12872,135.51816 c 0,-0.1943 0.29974,-4.1551 0.66608,-8.8017 1.09508,-13.88977 1.47031,-23.51716 1.68943,-43.345852 l 0.2081,-18.831979 9.64155,-8.08593 c 5.30285,-4.44726 9.72508,-8.08593 9.82717,-8.08593 0.1021,0 0.18563,19.68853 0.18563,43.752289 V 135.87136 H 231.2377 c -7.41696,0 -11.10898,-0.1174 -11.10898,-0.3532 z"
         id="path15" />
      <path
         style="opacity:1;fill:#d40000;fill-opacity:1;stroke-width:0.342353;stroke-dasharray:none;paint-order:fill markers stroke"
         d="m 224.82867,135.61596 -4.35814,-0.1068 v -1.1573 c 0,-0.6364 0.30154,-5.2848 0.67009,-10.32965 0.81612,-11.17142 1.27672,-24.103432 1.57515,-44.224382 l 0.22584,-15.226649 9.19804,-7.67494 c 5.05893,-4.22121 9.32278,-7.71774 9.47523,-7.77007 0.26914,-0.0924 0.73115,46.216769 0.73158,73.328951 l 2.2e-4,13.41624 -6.57994,-0.074 c -3.61896,-0.041 -8.54109,-0.1224 -10.93807,-0.1811 z"
         id="path18" />
      <path
         style="opacity:1;fill:#d40000;fill-opacity:1;stroke-width:0.342353;stroke-dasharray:none;paint-order:fill markers stroke"
         d="m 224.65776,135.61606 -4.18723,-0.1076 0.001,-1.2712 c 6.6e-4,-0.6993 0.30368,-5.4244 0.67338,-10.50033 0.80496,-11.05217 1.27187,-24.196982 1.57331,-44.293182 l 0.22344,-14.897109 9.19135,-7.66267 c 5.05524,-4.21446 9.31906,-7.70548 9.47515,-7.75782 0.29063,-0.0974 0.73832,43.001519 0.73832,71.078221 v 15.66699 l -6.75084,-0.074 c -3.71297,-0.041 -8.6351,-0.1223 -10.93808,-0.1814 z"
         id="path20" />
      <path
         style="opacity:1;fill:#d40000;fill-opacity:1;stroke-width:0.342353;stroke-dasharray:none;paint-order:fill markers stroke"
         d="m 212.06229,132.19686 c 0.12674,-2.021 0.37737,-5.2127 0.55698,-7.09267 0.63087,-6.60363 1.38076,-25.09737 1.59391,-39.308702 l 0.21533,-14.356219 1.73921,-1.4303 1.7392,-1.43029 0.10788,5.53207 c 0.11957,6.131579 -0.38718,17.987279 -1.12769,26.382771 -0.26532,3.00797 -0.64876,7.39823 -0.8521,9.75613 -0.2687,3.1157 -1.25167,21.34311 -1.36792,25.36531 -0.004,0.141 -0.64366,0.2564 -1.42131,0.2564 h -1.41391 z"
         id="path21" />
      <path
         style="opacity:1;fill:#d40000;fill-opacity:1;stroke-width:0.342353;stroke-dasharray:none;paint-order:fill markers stroke"
         d="m 203.54843,134.24776 c 0.81387,-6.876 1.76331,-25.18731 2.48343,-47.896722 l 0.25336,-7.98981 1.8251,-1.566119 1.82509,-1.56612 -0.21989,5.966879 c -0.27528,7.46973 -0.67816,13.70635 -1.53368,23.741252 -0.71399,8.37475 -1.21454,16.36623 -1.58967,25.37974 l -0.23117,5.5545 h -1.50238 -1.50237 z"
         id="path22" />
      <path
         style="opacity:1;fill:#d40000;fill-opacity:1;stroke-width:0.342353;stroke-dasharray:none;paint-order:fill markers stroke"
         d="m 195.17905,135.46376 c 0.002,-0.2458 0.30227,-4.1385 0.66828,-8.6505 0.67875,-8.36729 1.25112,-19.94361 1.66255,-33.625522 l 0.22997,-7.64759 1.84023,-1.57952 1.84023,-1.57952 -0.23944,4.78352 c -0.1317,2.63094 -0.38294,6.47551 -0.55832,8.54349 -1.27675,15.054752 -1.79036,22.397302 -2.13992,30.592422 l -0.40096,9.39992 -1.45272,0.1051 c -1.02297,0.074 -1.45188,-0.027 -1.4499,-0.3418 z"
         id="path23" />
      <path
         style="opacity:1;fill:#d40000;fill-opacity:1;stroke-width:0.342353;stroke-dasharray:none;paint-order:fill markers stroke"
         d="m 137.93936,135.58426 c 5.17889,-4.5792 19.44931,-16.06794 20.34516,-16.37934 0.72313,-0.25137 2.98696,-0.42431 5.55449,-0.42431 2.66137,0 4.33387,-0.13191 4.33387,-0.34181 0,-0.188 0.31789,-0.34182 0.70643,-0.34182 0.38854,0 1.19608,-0.34647 1.79453,-0.76994 0.59845,-0.42347 1.39572,-0.93986 1.77172,-1.14755 0.62354,-0.34441 0.69339,-0.79419 0.79467,-5.11697 0.0611,-2.60665 0.21488,-4.91746 0.34181,-5.13513 0.19964,-0.34236 19.01524,-16.255322 19.02642,-16.091262 0.002,0.0336 -0.0404,10.405312 -0.095,23.048182 l -0.0991,22.98705 H 165.0145 c -15.06993,0 -27.25375,-0.1292 -27.07515,-0.2871 z"
         id="path24" />
      <path
         style="opacity:1;fill:#d40000;fill-opacity:1;stroke-width:1.00157;stroke-dasharray:none;paint-order:fill markers stroke"
         id="path25"
         d="m 144.7027,138.61707 c 0.83801,-1.14633 1.87918,-2.15391 2.90375,-3.13731 0.96722,-0.89571 2.02205,-1.7427 3.28343,-2.16911 0.80385,-0.20636 1.46901,-0.7384 2.26201,-0.9555 0.12151,-0.0227 0.24922,-0.0227 0.36446,-0.0692 0.15708,-0.0608 0.29061,-0.1716 0.44235,-0.24492 0.52033,-0.25134 1.07965,-0.37115 1.64586,-0.46061 0.71109,-0.0839 1.42864,-0.0631 2.14303,-0.054 0.66644,-0.0151 1.36853,0.0639 2.00763,-0.17915 0.16902,-0.0639 0.31907,-0.17007 0.4786,-0.25549 0.81448,-0.45298 1.62718,-0.91147 2.45433,-1.34139 0.3202,-0.21695 0.66111,-0.40079 1.03539,-0.50499 0.10299,-0.0302 0.21483,-0.0264 0.3137,-0.0669 0.5328,-0.30161 0.26026,-0.17348 0.81611,-0.38862 0.8359,-0.18633 1.66752,-0.45138 2.51317,-0.58597 0.1355,-0.0151 0.27258,-0.0189 0.40644,-0.045 1.94893,-0.37568 -0.99105,0.11679 0.92395,-0.2177 0.4722,-0.082 0.94894,-0.11603 1.42645,-0.14854 0.66791,-0.0911 1.35337,0.0265 2.02077,-0.0382 0.3349,-0.0302 0.66245,-0.11754 0.99481,-0.16932 1.03289,-0.26759 1.47643,-1.19728 1.85996,-2.09783 0.30504,-0.76535 1.06049,-1.29517 1.70473,-1.774 0.84289,-0.66946 1.63283,-1.40114 2.46861,-2.0807 0.86184,-0.58413 1.6621,-1.25182 2.5311,-1.82574 0.76137,-0.62585 1.31678,-1.38633 1.6882,-2.29342 0.27764,-0.94061 0.59132,-1.86992 0.88211,-2.80641 0.39763,-1.09323 1.11514,-2.04193 1.64678,-3.07631 0.51392,-1.04697 0.27088,-0.48718 0.71324,-1.6862 0,0 -12.73233,-7.12932 -12.73233,-7.12932 v 0 c -0.48682,1.04837 -0.25179,0.54852 -0.70384,1.50017 -0.65616,1.09225 -1.5363,2.08033 -1.95944,3.2877 -0.23478,0.91502 -0.57517,1.79463 -0.89586,2.68191 -0.19193,0.67665 -0.63521,1.15726 -1.20838,1.55819 -0.81696,0.66663 -1.66903,1.28534 -2.50382,1.92835 -0.83621,0.68489 -1.65082,1.39491 -2.50352,2.05935 -0.79621,0.7056 -1.7054,1.37794 -2.16739,2.3624 -0.25485,0.64879 -0.17703,0.78119 -0.94918,0.81173 -0.98912,0.0952 -1.99095,0.0503 -2.97852,0.18973 -0.96914,0.13115 -1.92653,0.33411 -2.88559,0.52006 -0.88825,0.23547 -1.78769,0.44054 -2.63505,0.80534 -0.78885,0.32391 -1.58477,0.60681 -2.29331,1.1009 -0.73026,0.43015 -1.49653,0.83577 -2.29446,1.11765 -0.75614,0.0453 -1.50799,0.034 -2.26659,0.0378 -0.77538,0.0382 -1.55069,0.11452 -2.2962,0.34507 -0.86938,0.27742 -1.70275,0.64766 -2.56844,0.93139 -0.76038,0.36133 -1.52402,0.70961 -2.28371,1.07248 -1.2427,0.74143 -2.32663,1.70374 -3.39716,2.67152 -1.06824,1.0478 -2.12372,2.10871 -3.21835,3.12919 z" />
      <path
         style="opacity:1;fill:#d40000;fill-opacity:1;stroke-width:1.00157;stroke-dasharray:none;paint-order:fill markers stroke"
         id="path26"
         d="m 180.51757,103.90842 c 0.37629,-0.97742 1.04514,-1.6258 1.86786,-2.23298 0.13568,-0.0824 0.26585,-0.17461 0.40704,-0.24756 0.30795,-0.15836 0.64085,-0.26419 0.95163,-0.41703 0.60988,-0.3001 1.18138,-0.65976 1.75096,-1.028335 1.00899,-0.624189 1.58945,-1.308511 1.94207,-2.4319 0.54203,-2.643968 0.25001,-1.676409 -3.40724,-3.181946 -0.81412,1.320416 -1.84472,2.437039 -2.94716,3.517946 -0.97445,1.053922 -2.2649,1.63287 -3.47593,2.343875 -0.82527,0.36926 -1.38519,0.95172 -1.80462,1.7339 -0.24011,0.80949 -0.52457,1.59983 -0.81908,2.39334 -0.60228,1.47908 -1.02142,3.02056 -1.44729,4.55713 -0.51102,1.7424 -0.79781,3.53397 -1.25307,5.28922 -0.33037,1.46279 -0.91139,2.77584 -1.80531,3.9755 -0.94797,1.12199 -2.23639,1.68416 -3.57643,2.17969 -1.38443,0.45615 -2.80192,0.79457 -4.20114,1.19966 -1.22132,0.26154 -2.51829,0.78777 -3.77886,0.52838 -1.3452,-0.84072 0.68735,0.43548 2.75765,1.52878 0.0485,0.0265 -0.0755,-0.0877 -0.0826,-0.14211 -0.011,-0.085 0.008,-0.17273 0.031,-0.25512 0.0433,-0.15345 0.24862,-0.57256 0.30913,-0.70121 0.16531,-0.71282 0.73838,-1.28153 0.90265,-1.98271 -3.80925,-2.42963 -2.42925,-1.98293 -5.0003,-1.72335 -0.35668,-0.0453 -0.20811,0.0189 -0.45922,-0.1629 1.05446,0.63493 2.07344,1.33285 3.1634,1.9047 0.0714,0.0378 0.12869,-0.0975 0.19577,-0.14249 0.44334,-0.29632 0.33086,-0.21846 0.84903,-0.4571 0.75947,-0.23546 1.73096,-1.20676 2.59104,-0.82934 0.0888,0.0389 0.15205,0.12019 0.22805,0.18028 -1.00119,-0.56194 -1.98712,-1.15192 -3.00357,-1.68574 -0.0883,-0.0465 0.11675,0.17272 0.20629,0.21657 1.24912,0.6122 2.45439,1.36044 3.79185,1.74289 0.3205,0.0918 0.61484,-0.25814 0.91834,-0.39598 1.1334,-0.51489 1.08956,-0.51882 2.23184,-1.13946 2.409,-1.466 4.47413,-3.40539 6.39235,-5.45468 1.89776,-2.1882 3.49687,-4.61681 5.10175,-7.02259 1.30048,-2.05788 2.97784,-3.82806 4.69639,-5.5366 0.98443,-0.92307 1.63445,-2.111807 2.28181,-3.278585 0.30716,-0.900472 0.94717,-1.556636 1.64528,-2.169146 0.78891,-0.694829 1.72367,-1.035175 2.70302,-1.358892 1.08981,-0.340535 2.03499,-0.928138 2.8749,-1.69028 0.6693,-0.711761 1.07375,-1.600025 1.53789,-2.44611 0.62241,-1.183824 1.6349,-2.085695 2.63333,-2.948863 0.8461,-0.687761 1.67883,-1.39166 2.52282,-2.082822 0.69907,-0.647358 1.39634,-1.292259 2.03914,-1.996045 0.72823,-0.713121 1.52288,-1.355338 2.30848,-2.003678 0.73781,-0.631597 1.46673,-1.266973 2.2519,-1.840101 0.73399,-0.517417 1.38995,-1.136239 2.10139,-1.678564 0.78024,-0.572409 1.56077,-1.137524 2.3161,-1.742967 0.94877,-0.798727 1.93479,-1.542047 2.9274,-2.285707 0.89953,-0.642671 1.69124,-1.407042 2.60131,-2.038753 1.18084,-0.763842 2.40044,-1.464037 3.5964,-2.203351 1.68874,-1.026671 3.38118,-2.056592 5.01688,-3.16713 1.50333,-1.041941 2.98965,-2.104971 4.47996,-3.164977 1.10167,-0.827112 2.24895,-1.587401 3.39548,-2.349052 0.98422,-0.631937 1.90766,-1.34657 2.81223,-2.087168 0.72532,-0.680353 1.63498,-1.098936 2.42984,-1.684044 0.7653,-0.740977 1.55369,-1.448656 2.3724,-2.132259 0.62893,-0.569045 1.34871,-1.0944 1.73451,-1.867615 0.34012,-1.609361 -3.7268,-2.336089 -3.77639,-2.35389 -0.30629,-0.109984 -1.8902,1.008453 -2.14663,1.177134 -1.67776,1.291011 -3.11385,2.890356 -4.82294,4.137222 -0.0524,0.002 -0.20244,-0.0189 -0.15723,0.0076 4.17726,2.459036 2.52827,2.384353 4.45943,0.25474 0.99559,-0.924699 1.78815,-2.027112 2.65454,-3.065537 0.61313,-0.663383 1.29127,-1.257827 1.9869,-1.832504 0.43536,-0.246803 0.79542,-0.698117 1.30581,-0.805984 0.0863,-0.0189 0.33921,0.0737 0.26298,0.03024 -3.2299,-1.877972 -2.59172,-2.764611 -3.35574,-1.409084 -0.96812,1.419969 -2.1413,2.683616 -3.31152,3.936681 -0.98052,0.960718 -1.754,2.128668 -2.78656,3.032617 -0.81612,0.774199 -1.85622,1.232428 -2.7486,1.900006 -0.8802,0.858369 -1.25489,2.029153 -1.60075,3.17658 -0.46426,1.534526 -0.47346,3.141619 -0.51407,4.729209 -0.0397,1.661972 -0.25924,3.306936 -0.4606,4.954092 -0.12424,1.158727 -0.3896,2.289978 -0.49097,3.45154 -0.10398,1.50274 -0.40795,2.982954 -0.58987,4.478324 -0.14272,1.235037 -0.18497,2.477481 -0.20814,3.719433 0.086,1.340107 0.21634,2.676133 0.28331,4.017638 0.17946,1.36766 0.45566,2.718614 0.61484,4.089336 0.13043,1.336138 0.13161,2.679533 0.14219,4.020472 0.002,1.416416 -0.002,2.832794 -0.003,4.249172 -3.9e-4,1.717077 0.0144,3.434162 0.0125,5.151202 -0.006,1.57844 -0.0136,3.15685 -0.0136,4.73529 0.0416,1.51816 -0.0147,3.02857 -0.15027,4.54027 -0.11683,1.48679 -0.55642,2.86976 -1.29626,4.15574 -0.80279,1.07226 -1.32665,2.29025 -1.92145,3.47596 -0.51485,1.22702 -1.08354,2.43258 -1.52085,3.69014 -0.3354,1.33905 -0.83251,2.62726 -1.23961,3.945 -0.33627,1.19799 -0.89176,2.31507 -1.18962,3.52429 -0.30735,0.97818 -0.42283,2.07999 -0.93049,2.98258 -1.2497,-0.20976 -0.54416,-0.0979 3.17545,1.6413 0.0591,0.0264 -0.0673,-0.11377 -0.0837,-0.17689 -0.0961,-0.37039 -0.0389,-0.75832 -0.004,-1.13132 0.11116,-1.08159 0.1711,-2.16529 0.30346,-3.24469 0.13845,-1.04288 0.37844,-2.06419 0.50458,-3.10972 0.0951,-0.84079 0.12163,-1.6868 0.13414,-2.53217 -0.0208,-0.96434 0.20122,-1.91127 0.37644,-2.85373 0.18055,-0.95701 0.25312,-1.92975 0.28588,-2.90173 0.18584,-1.16221 0.42397,-2.31387 0.56131,-3.48378 0.22956,-1.24418 0.33135,-2.50443 0.40217,-3.76592 0.0673,-1.19033 0.068,-2.38247 0.0702,-3.57411 -0.004,-1.24521 3.2e-4,-2.49041 -0.002,-3.73561 0.002,-1.1006 10e-4,-2.2012 0.006,-3.30176 -0.003,-1.18692 -0.008,-2.373851 -0.0117,-3.560736 1e-4,-1.190967 0.009,-2.381858 0.008,-3.572787 0.0758,-1.586306 0.31846,-3.165128 0.4637,-4.749355 0.12216,-1.43777 0.19589,-2.879395 0.21472,-4.322154 0.011,-1.234167 0.009,-2.468334 9.9e-4,-3.702501 -0.008,-1.457348 -0.007,-2.914658 -0.004,-4.372044 -0.0129,-1.573568 -0.0113,-3.147213 6.2e-4,-4.720781 0.002,-1.184542 0.0113,-2.369084 0.006,-3.553625 -0.11566,-0.961436 0.20216,-2.017928 -0.10141,-2.956649 -0.0689,-0.213165 -0.18573,-0.407584 -0.27859,-0.611376 -0.77944,-0.985701 -1.85113,-1.6944 -2.93384,-2.310199 -3.89046,-2.212611 -2.52954,-1.628523 -4.53725,-2.442028 -1.5465,-0.5808 -2.26738,-0.03779 -3.25952,1.148409 -0.75087,1.116737 -0.98272,2.425134 -1.01538,3.745966 0.0632,1.681889 0.22507,3.356069 0.39158,5.030059 0.168,1.188284 0.33952,2.376454 0.57949,3.552454 0.20191,0.929386 0.27141,1.877329 0.31261,2.825046 0.0318,1.217688 0.0384,2.435981 0.0399,3.654047 -0.004,1.339464 -0.0121,2.678778 -0.005,4.018242 0.0564,1.365657 -0.0555,2.72504 -0.23906,4.076788 -0.22152,1.420762 -0.32833,2.852825 -0.39958,4.287609 -0.0785,0.798236 -0.034,0.409625 -0.1313,1.166098 0,0 3.27735,1.721159 3.27735,1.721159 v 0 c 0.0928,-0.776315 0.0491,-0.376441 0.1296,-1.2 0.0546,-1.423219 0.15534,-2.845417 0.3881,-4.25212 0.20965,-1.366261 0.28755,-2.7456 0.25557,-4.127735 0.008,-1.340069 0.003,-2.680063 10e-4,-4.02017 0.003,-1.216857 0.0238,-2.433978 -0.003,-3.650722 -0.0291,-0.966349 -0.0921,-1.932245 -0.2855,-2.881927 -0.25168,-1.171956 -0.44602,-2.354192 -0.63501,-3.537978 -0.18444,-1.656756 -0.34931,-3.312529 -0.38395,-4.980548 -0.0178,-1.236057 0.18912,-2.475439 0.883,-3.524032 0.98527,-1.135218 1.57816,-1.337763 2.98874,-0.769587 1.54294,0.676158 0.63676,0.310677 -1.7599,-1.149921 -0.26653,-0.16252 0.5476,0.300094 0.8135,0.46371 0.77161,0.474406 1.51209,1.00698 2.16252,1.63971 0.22809,0.390501 0.38738,0.565909 0.44854,1.014992 0.10662,0.782854 -0.076,1.605241 7.7e-4,2.391459 -0.005,1.18662 0.004,2.373241 0.006,3.559861 0.0117,1.573909 0.0136,3.147855 0.001,4.721764 0.004,1.456932 0.005,2.913864 0.001,4.370797 -0.005,1.231143 10e-4,2.462286 -0.007,3.69343 -0.0185,1.440945 -0.0417,2.882645 -0.15927,4.319773 -0.0796,0.942009 -0.1683,1.879559 -0.30701,2.815068 -0.006,0.03969 -0.21263,1.295584 -0.22136,1.401184 -0.0147,0.178394 8.2e-4,0.357921 9.9e-4,0.536806 -9.9e-4,1.193575 0.008,2.387112 0.008,3.580687 -0.004,1.18303 -0.009,2.366022 -0.0113,3.549017 0.005,1.10309 0.005,2.20623 0.008,3.30936 -5.5e-4,1.24486 0.008,2.48972 0.003,3.73459 -0.003,1.18711 -0.009,2.37463 -0.0542,3.56095 -0.0641,1.25401 -0.16528,2.50564 -0.40465,3.7403 -0.12687,1.17936 -0.33683,2.34391 -0.58903,3.50279 -0.0295,0.95667 -0.0769,1.91516 -0.24888,2.8588 -0.17269,0.95996 -0.43028,1.91777 -0.42771,2.89848 -0.005,0.83633 -0.0174,1.67369 -0.0987,2.50681 -0.11483,1.04719 -0.35747,2.068 -0.49293,3.1113 -0.13984,1.07838 -0.20658,2.16 -0.32696,3.24061 -0.0181,0.15307 -0.13656,1.46479 -0.0571,1.51548 3.28128,2.09741 2.54536,2.8439 3.51637,1.72331 0.42721,-0.9775 0.64499,-2.04911 0.94734,-3.06901 0.27398,-1.20821 0.79575,-2.33178 1.15058,-3.51629 0.4119,-1.3121 0.90667,-2.59619 1.24069,-3.93097 0.42997,-1.2426 0.98062,-2.43799 1.50273,-3.64388 0.59623,-1.17611 1.0878,-2.40533 1.89086,-3.46915 0.77126,-1.32632 1.24165,-2.75706 1.38456,-4.29234 0.11803,-1.52186 0.20375,-3.04271 0.15923,-4.5702 -2e-4,-1.58306 -0.008,-3.16604 -0.0132,-4.74905 -0.002,-1.71194 0.0136,-3.42388 0.0166,-5.135821 0.002,-1.417511 0.005,-2.835061 9.8e-4,-4.252535 -0.003,-1.349216 0.006,-2.702098 -0.11101,-4.047232 -0.13783,-1.370154 -0.43574,-2.713852 -0.63689,-4.075011 -0.0569,-1.33183 -0.17306,-2.657839 -0.27163,-3.986948 0.01,-1.234696 0.0393,-2.470488 0.16426,-3.699779 0.16505,-1.49949 0.47782,-2.977021 0.61273,-4.47704 0.10756,-1.158463 0.35769,-2.292812 0.46948,-3.450444 0.19582,-1.662538 0.4014,-3.321826 0.45065,-4.997745 0.0413,-1.552063 0.0762,-3.1217 0.49751,-4.627502 0.32144,-1.068359 0.67036,-2.169864 1.50914,-2.952794 0.91513,-0.652308 1.91956,-1.180913 2.75565,-1.941959 1.00519,-0.944315 1.80619,-2.09227 2.77243,-3.077782 1.18329,-1.277934 2.33729,-2.586255 3.38849,-3.976177 1.01911,-1.58468 0.6589,-0.630576 -2.90045,-2.620989 -0.1711,-0.09562 -1.07607,0.553701 -1.1956,0.638854 -0.15553,0.11074 -0.30921,0.224126 -0.4638,0.336 -0.72373,0.579439 -1.42055,1.191042 -2.02591,1.896113 -0.84521,1.048933 -1.62064,2.155843 -2.63731,3.054577 -0.38908,0.42977 -0.7247,0.873373 -1.0731,1.335156 -0.0777,0.103181 -0.33899,0.22148 -0.23978,0.303874 2.87917,2.39365 2.16705,2.873083 3.29983,1.977637 1.56751,-1.398841 3.09516,-2.846059 4.76476,-4.126299 0.44012,-0.274016 1.00537,-0.660321 1.50361,-0.845745 0.18709,-0.06954 0.7356,0.003 0.58494,-0.128126 -0.83541,-0.725934 -1.89594,-1.146784 -2.7949,-1.792327 -0.0751,-0.05405 0.1917,-0.05178 0.27693,-0.01512 0.0445,0.0189 0.0163,0.09524 0.0246,0.142488 -0.30872,0.737348 -1.06574,1.204838 -1.61826,1.746557 -0.81046,0.681336 -1.58645,1.39714 -2.37432,2.101153 -0.80332,0.57789 -1.69771,1.029543 -2.42377,1.712542 -0.89517,0.731149 -1.81538,1.42919 -2.78441,2.06022 -1.15152,0.755944 -2.27588,1.551647 -3.38166,2.373317 -1.48183,1.057058 -2.94637,2.136416 -4.43873,3.179036 -1.65117,1.093266 -3.34261,2.131654 -5.05601,3.123553 -1.21151,0.730809 -2.41978,1.464718 -3.61933,2.21503 -0.91054,0.636623 -1.715,1.392793 -2.6089,2.04994 -0.99078,0.748989 -1.97761,1.498242 -2.93428,2.290696 -0.76785,0.592063 -1.56081,1.148372 -2.3365,1.72989 -0.69278,0.559521 -1.36286,1.146935 -2.08105,1.676674 -0.78933,0.580308 -1.52839,1.21988 -2.27178,1.85726 -0.78479,0.674192 -1.60206,1.311609 -2.33641,2.041889 -0.63517,0.685115 -1.30921,1.331792 -2.00376,1.956511 -0.84584,0.693203 -1.67307,1.4081 -2.52077,2.098809 -1.01622,0.904252 -2.02636,1.861606 -2.70205,3.055899 -0.45233,0.80383 -0.84788,1.656492 -1.48615,2.334955 -0.80926,0.727672 -1.73076,1.2545 -2.77719,1.57096 -1.01944,0.341291 -1.98584,0.74589 -2.79584,1.477153 -0.72082,0.64577 -1.39806,1.340296 -1.7115,2.280718 -0.60616,1.150904 -1.23494,2.302488 -2.17752,3.219628 -1.6949,1.75578 -3.36179,3.556836 -4.65689,5.637876 -1.61988,2.37464 -3.1918,4.79796 -5.09337,6.96167 -1.88873,2.02337 -3.93941,3.93607 -6.33412,5.35018 -0.81231,0.41813 -1.39911,0.75183 -2.24637,1.0729 -0.29692,0.11263 -1.11235,0.0386 -0.90958,0.28308 0.6913,0.83309 1.78265,1.22884 2.67398,1.84324 -0.0685,-0.0703 -0.12287,-0.1576 -0.20534,-0.21014 -1.11363,-0.71327 -2.25079,-1.38916 -3.37618,-2.08373 -1.0845,-0.23017 -2.0175,0.55964 -2.98267,0.934 -0.0671,0.034 -1.42769,0.71422 -1.26604,0.86147 1.64103,1.49476 2.09193,2.27346 3.65208,2.19779 0.43034,-0.0522 0.85888,-0.14135 1.29002,-0.18293 1.34304,-0.12964 1.63877,0.90255 -2.67881,-1.96853 0.0147,0.0265 0.0512,0.0514 0.0444,0.0816 -0.0231,0.10243 -0.28657,0.53919 -0.31045,0.58621 -0.19665,0.38721 -0.36254,0.79294 -0.5291,1.19353 -1.07126,2.21122 -0.56422,2.69492 3.20841,3.63005 1.30035,0.0518 2.56967,-0.37191 3.81834,-0.68047 1.41437,-0.39636 2.84725,-0.72914 4.23604,-1.21285 1.39396,-0.53522 2.69483,-1.19531 3.67213,-2.36798 0.91833,-1.24154 1.55377,-2.58017 1.87901,-4.09765 0.44227,-1.75873 0.70374,-3.55476 1.22742,-5.29422 0.42598,-1.52288 0.85789,-3.04414 1.48516,-4.49945 0.29465,-0.77495 0.61031,-1.53641 0.81564,-2.34002 0.38214,-0.72536 0.91875,-1.22241 1.66829,-1.57644 1.23467,-0.71886 2.50074,-1.37438 3.48875,-2.442816 0.6326,-0.61954 1.28674,-1.234281 1.84624,-1.923062 0.16338,-0.20107 0.64075,-0.9024 0.8138,-1.12834 0.10628,-0.138708 0.22329,-0.269102 0.33494,-0.403578 -1.01355,-0.64868 -2.05037,-1.262362 -3.04066,-1.946078 -0.0438,-0.03024 0.12386,-0.09336 0.15221,-0.048 0.0504,0.08013 -3.9e-4,0.189354 -0.004,0.283842 -0.014,0.379805 -0.0458,0.759723 -0.12798,1.131628 -0.29544,1.052372 -0.84814,1.644662 -1.77945,2.222287 -1.01404,0.644636 -2.1111,1.099313 -3.14115,1.705172 -0.85207,0.650835 -1.54085,1.371965 -1.98588,2.363185 z" />
      <path
         style="opacity:1;fill:#d40000;fill-opacity:1;stroke-width:0.342353;stroke-dasharray:none;paint-order:fill markers stroke"
         d="m 214.92189,133.73566 c 0.72338,-16.9314 2.23415,-37.156382 2.80173,-37.507162 0.95245,-0.58865 1.26014,-15.08545 0.50118,-23.613519 l -0.19956,-2.24243 2.04325,-1.26117 c 1.12379,-0.69364 2.15077,-1.26117 2.28218,-1.26117 0.6311,0 -0.56656,44.504121 -1.3844,51.443131 -0.28805,2.44397 -0.79899,6.75084 -1.13542,9.57082 -0.50559,4.2379 -0.53281,5.1746 -0.15691,5.4006 0.25013,0.1503 0.45478,0.5733 0.45478,0.9399 0,0.6036 -0.25059,0.6667 -2.64907,0.6673 l -2.64906,6e-4 z"
         id="path29" />
      <path
         style="opacity:1;fill:#d40000;fill-opacity:1;stroke-width:0.342353;stroke-dasharray:none;paint-order:fill markers stroke"
         d="m 206.65127,132.19686 c 0.57277,-11.15733 1.2604,-22.04666 1.85089,-29.31063 0.86191,-10.602962 1.37212,-19.178492 1.37212,-23.062632 0,-2.528979 0.10906,-3.183229 0.59817,-3.588379 1.65821,-1.37352 3.6623,-2.87122 3.73917,-2.79434 0.16252,0.16251 -0.56361,29.760191 -0.91526,37.307091 -0.35967,7.71885 -1.24747,21.08339 -1.57244,23.67069 l -0.18246,1.4527 h -2.53941 -2.53941 z"
         id="path30" />
      <path
         style="opacity:1;fill:#d40000;fill-opacity:1;stroke-width:0.342353;stroke-dasharray:none;paint-order:fill markers stroke"
         d="m 198.25257,135.10146 c 0,-4.1515 1.12192,-21.93085 2.386,-37.811682 0.37969,-4.77003 0.69034,-9.71298 0.69034,-10.98433 v -2.31156 l 2.25727,-2.11157 c 1.2415,-1.16136 2.31816,-2.05069 2.39257,-1.97628 0.13234,0.13235 -0.67596,23.742162 -1.0676,31.183742 -0.39413,7.48889 -1.24661,20.55558 -1.47181,22.55978 l -0.23045,2.0509 -2.47816,0.1004 c -2.39888,0.097 -2.47816,0.075 -2.47816,-0.6994 z"
         id="path31" />
      <path
         style="opacity:1;fill:#d40000;fill-opacity:1;stroke-width:0.342353;stroke-dasharray:none;paint-order:fill markers stroke"
         d="m 142.19495,136.88576 c -1.22198,-0.7448 -2.57696,-1.3546 -3.01105,-1.3552 -0.43894,-6e-4 -0.69549,-0.1527 -0.578,-0.3428 0.11619,-0.188 0.0574,-0.3419 -0.13056,-0.3419 -0.188,0 -0.43688,0.1539 -0.55307,0.3419 -0.38041,0.6155 -0.7655,0.3597 -0.96572,-0.6414 -0.15354,-0.7677 -0.6932,-1.2734 -2.46224,-2.3072 l -2.26561,-1.3241 2.56519,-2.4605 c 2.46067,-2.36027 5.04721,-3.96688 7.84738,-4.87436 0.71546,-0.23187 2.25363,-0.99827 3.41814,-1.70312 1.16452,-0.70485 2.73257,-1.3816 3.48456,-1.50389 0.75199,-0.12228 2.13634,-0.36766 3.07633,-0.54527 0.93999,-0.17761 2.51179,-0.33209 3.49288,-0.3433 1.27873,-0.0146 1.73829,-0.14136 1.62308,-0.44765 -0.0884,-0.23499 0.29793,-0.68754 0.8585,-1.00566 0.56056,-0.31811 3.68323,-2.81336 6.93926,-5.54499 4.86981,-4.08551 6.14445,-5.34591 7.18489,-7.10467 0.69565,-1.17593 1.26648,-2.52609 1.26851,-3.00037 0.002,-0.47427 0.23277,-1.61739 0.51273,-2.540262 0.27996,-0.92287 0.50902,-2.12006 0.50902,-2.66042 0,-1.29656 1.251,-3.70892 4.30495,-8.30144 2.91274,-4.38016 4.4843,-6.33091 5.10028,-6.33091 0.24132,0 1.24434,-0.6053 2.22894,-1.34512 1.06373,-0.79927 2.36071,-1.44008 3.19611,-1.57913 0.77326,-0.1287 1.9998,-0.53504 2.72566,-0.90297 0.72585,-0.36793 2.41784,-0.893669 3.75996,-1.168309 1.34213,-0.27464 2.85699,-0.80116 3.36638,-1.17006 0.50938,-0.36889 1.12465,-0.67302 1.36726,-0.67585 0.24261,-0.003 1.03317,-0.21128 1.7568,-0.46322 1.31168,-0.45667 1.45712,-0.64555 3.85043,-5.00067 0.25828,-0.47 0.47055,-0.98066 0.47171,-1.13482 0.003,-0.41229 2.98175,-5.25323 4.4908,-7.29849 0.71742,-0.97236 2.10153,-2.43361 3.07578,-3.24724 0.97425,-0.81363 2.24724,-1.95648 2.82885,-2.53967 0.58161,-0.58318 1.67274,-1.41765 2.42473,-1.85435 0.75199,-0.43671 2.15906,-1.53 3.12681,-2.42953 1.20215,-1.11741 2.25974,-1.76147 3.33851,-2.0331 0.86842,-0.21867 1.66232,-0.53248 1.76422,-0.69736 0.1019,-0.16488 0.54831,-0.29977 0.99203,-0.29977 0.44371,0 1.75861,-0.24386 2.922,-0.5419 1.79992,-0.46112 4.89319,-0.63771 8.98367,-0.51285 0.52809,0.0161 0.87194,0.17205 0.76412,0.34651 -0.10783,0.17446 0.11382,0.41555 0.49255,0.53575 0.75646,0.2401 0.89366,0.85614 0.31871,1.43108 -0.2653,0.2653 -0.24542,0.56917 0.0703,1.07469 0.37169,0.59518 0.34879,0.80577 -0.14725,1.35389 -0.55124,0.60912 -0.57313,3.20112 -0.35548,42.104259 l 0.23193,41.455142 -10.85292,-0.185 c -5.9691,-0.1017 -10.88335,-0.2359 -10.92055,-0.2982 -1.00624,-1.6853 -1.02518,-1.998 -0.43725,-7.2142 0.32263,-2.86246 0.80829,-7.20408 1.07924,-9.64805 0.77864,-7.02333 1.9038,-51.643371 1.2961,-51.398781 -0.17295,0.0696 -1.35497,0.74183 -2.62672,1.49382 l -2.31227,1.36726 0.19453,2.2218 c 0.74081,8.460989 0.48861,22.639929 -0.41263,23.198889 -0.59076,0.36639 -2.80605,30.108812 -2.80736,37.691562 l -4e-4,2.2692 -1.23128,0.231 c -0.6772,0.127 -1.28494,0.1773 -1.35052,0.1117 -0.0656,-0.066 0.17313,-3.9593 0.53047,-8.6528 0.35734,-4.69352 0.81535,-12.22525 1.0178,-16.73721 0.39657,-8.83849 1.08466,-37.491531 0.90466,-37.671521 -0.0601,-0.0602 -1.12837,0.67728 -2.37382,1.63875 -2.65561,2.0501 -2.50877,1.53051 -2.79324,9.883939 -0.11204,3.28997 -0.6517,11.74988 -1.19923,18.799812 -0.54754,7.04993 -1.16257,16.35584 -1.36673,20.6798 -0.20416,4.32393 -0.4537,8.82313 -0.55455,9.99803 l -0.18334,2.1364 h -1.27895 -1.27895 l 0.25038,-2.1364 c 0.8519,-7.26863 3.0363,-54.044432 2.54671,-54.534022 -0.27199,-0.272 -4.66164,3.72998 -4.94989,4.51274 -0.14472,0.393 -0.36315,2.75736 -0.4854,5.25414 -0.12225,2.49677 -0.59745,9.1878 -1.05601,14.868942 -0.45855,5.68115 -0.99414,13.40569 -1.1902,17.16565 -0.19607,3.75996 -0.45049,8.56675 -0.56538,10.68175 l -0.20889,3.8454 h -1.16263 c -1.14039,0 -1.16258,-0.028 -1.15971,-1.4527 0.002,-0.799 0.15068,-3.1447 0.33127,-5.2127 0.43216,-4.94888 1.28581,-20.37021 1.53261,-27.68701 0.10781,-3.195962 0.28739,-7.772012 0.39908,-10.168992 0.14609,-3.13531 0.0945,-4.35813 -0.18376,-4.35813 -0.21276,0 -1.08487,1.07903 -1.93801,2.39786 -0.85314,1.31882 -1.92675,2.64395 -2.38581,2.94473 l -0.83464,0.54688 V 110.5632 c 0,9.91303 -0.10181,19.68766 -0.22625,21.72146 l -0.22625,3.6978 -22.38567,-0.2273 -22.38568,-0.2272 -1.30141,1.368 c -0.71578,0.7525 -1.34604,1.3627 -1.40057,1.356 -0.0545,-0.01 -1.09895,-0.6214 -2.32094,-1.3662 z m 87.99998,-78.855371 c 0.24474,-0.6378 0.0622,-0.53947 -0.86308,0.46485 -0.79032,0.85784 -0.79338,0.87795 -0.0662,0.43462 0.41937,-0.25567 0.83754,-0.66043 0.92927,-0.89947 z"
         id="path32" />
      <path
         style="opacity:1;fill:#d40000;fill-opacity:1;stroke-width:0.342353;stroke-dasharray:none;paint-order:fill markers stroke"
         d="m 192.71424,114.42248 0.14901,-21.448882 1.10603,-1.02545 c 0.60832,-0.56399 1.42513,-1.651 1.81514,-2.41557 0.39002,-0.76456 0.96337,-1.60113 1.27413,-1.85904 0.52241,-0.43356 0.54974,-0.10972 0.36252,4.29555 -0.11137,2.62046 -0.36358,8.763702 -0.56048,13.651662 -0.19689,4.88795 -0.58103,12.11733 -0.85365,16.06529 -0.27262,3.94796 -0.59442,8.75472 -0.71513,10.68172 l -0.21946,3.5036 h -1.25356 -1.25357 z"
         id="path33" />
      <path
         style="opacity:1;fill:#d40000;fill-opacity:1;stroke-width:1.00157;stroke-dasharray:none;paint-order:fill markers stroke"
         id="path34"
         d="m 196.72125,128.20345 c 2.0843,-6.07343 3.91958,-12.23176 6.00593,-18.30414 0.49273,-1.43414 1.03127,-2.8521 1.54691,-4.27816 1.43037,-3.52592 2.83239,-7.096928 4.60682,-10.470799 0.34711,-0.659981 0.69913,-1.3248 1.14934,-1.919206 0.23089,-0.305008 1.15149,-0.48824 0.87034,-0.747515 -0.71379,-0.658167 -1.82877,-0.652914 -2.74316,-0.979389 -0.0496,0.932107 -0.0174,1.872226 -0.14888,2.796359 -0.4454,3.128617 -1.30552,5.99093 -2.2516,9.00525 -1.35217,4.30817 -3.01157,8.48032 -4.70977,12.65946 -0.41212,0.93497 -0.73458,1.91485 -1.23638,2.80493 -0.17427,0.30917 -1.04259,0.52309 -0.76337,0.74211 0.83516,0.65515 2.04092,1.44567 3.01515,1.02426 0.74653,-0.32278 0.0974,-1.62694 0.23255,-2.42903 0.49911,-2.96258 1.16739,-5.0685 1.97337,-7.98679 1.43227,-4.60622 0.93024,-3.22843 2.47074,-7.36588 0.20122,-0.54047 1.14178,-1.36429 0.62214,-1.61442 -1.40269,-0.67525 -3.24761,-0.98631 -4.65868,-0.32882 -1.55731,0.7257 -2.15386,2.67741 -3.2393,4.00921 -1.29733,1.59174 -2.60598,3.17427 -3.90897,4.76141 -3.38047,3.84623 -6.32211,8.07745 -9.80301,11.8385 -0.55209,0.59652 -1.07774,1.25034 -1.76836,1.67894 -0.17968,0.1115 -0.80772,-0.17726 -0.59875,-0.20976 1.30155,-0.20296 2.6264,-0.2075 3.93961,-0.31144 2.63469,-4.79248 2.04322,-3.93668 5.35662,-8.91575 1.14247,-1.71678 2.25479,-3.45766 3.50209,-5.09987 0.85167,-1.12127 3.6096,-4.59129 5.39193,-5.44668 0.29239,-0.14022 0.62864,0.15988 0.94297,0.23963 -1.07067,-0.0975 -2.26812,-0.80773 -3.212,-0.29292 -0.74602,0.40683 -0.44968,1.64028 -0.72975,2.44256 -0.31309,0.89684 -0.67697,1.77558 -1.04807,2.65002 -0.31699,0.74691 -0.65702,1.48433 -1.01543,2.2123 -0.15088,0.30652 -0.83526,0.78044 -0.51112,0.88831 1.33066,0.44288 2.79582,0.22488 4.19373,0.33713 2.50162,-3.52464 5.10935,-6.99001 7.92492,-10.27226 0.85246,-0.99375 1.68837,-2.009767 2.64398,-2.904759 1.93744,-1.814589 1.4117,-1.800681 2.79275,-0.984378 -1.33906,0.256252 -2.94626,-0.07521 -4.01716,0.768642 -1.16852,0.920617 -1.30718,2.673565 -2.01359,3.982755 -0.76187,1.41199 -1.57139,2.79806 -2.38979,4.17804 -1.2199,2.05701 -2.71336,4.53524 -4.24481,6.43653 -0.4014,0.49833 -0.89465,0.9151 -1.34198,1.37269 0.95966,0.44738 1.83297,1.50652 2.87897,1.34219 0.6448,-0.10129 0.29753,-1.27695 0.54646,-1.88032 0.47185,-1.14365 1.03821,-2.24693 1.6092,-3.34443 2.07532,-3.98895 4.43323,-7.81942 6.80856,-11.633156 0.54216,-0.779565 1.08431,-1.559168 1.62647,-2.338734 0.0882,-0.07181 0.37799,-0.205606 0.26465,-0.215433 -1.49086,-0.129637 -3.10375,-0.723099 -4.4869,-0.151937 -1.12242,0.463635 -1.45242,1.946759 -2.19154,2.910312 -1.50867,1.966748 -3.65838,4.679588 -5.20053,6.635078 -0.29386,0.3753 -3.47451,4.45349 -4.00431,5.0784 -0.42989,0.50702 -1.66775,0.87443 -1.35649,1.4618 2.73343,5.1583 2.96061,0.2589 3.17659,-0.42723 0.2824,-0.89738 0.67621,-1.75578 1.01431,-2.63365 1.11799,-2.55122 2.41977,-5.01442 3.60209,-7.53517 0.26725,-0.5698 1.11778,-2.428916 1.36798,-3.135612 0.1282,-0.362079 0.20685,-0.739956 0.31026,-1.109896 0,0 -3.18612,-1.724107 -3.18612,-1.724107 v 0 c -0.94219,4.175055 -3.38459,7.947775 -5.05121,11.849995 -0.37927,0.86944 -0.78456,1.728 -1.1378,2.60832 -0.26937,0.67128 -1.1596,1.46272 -0.72889,2.04378 0.81148,1.09478 2.27357,1.78209 3.63316,1.87435 0.6633,0.045 0.85869,-1.01579 1.265,-1.54198 1.31262,-1.69991 2.50513,-3.49062 3.85125,-5.16548 2.35591,-3.01973 2.78659,-3.61625 5.25628,-6.59845 0.77957,-0.941326 2.25437,-1.58154 2.36931,-2.798359 0.12155,-1.286816 -1.16602,-2.307477 -1.77956,-3.445115 -0.0512,-0.09487 0.0595,0.207118 0.0892,0.311055 -0.49741,0.809991 -0.99482,1.619981 -1.49224,2.43001 -2.84478,4.822489 -1.36539,2.309064 -4.43691,7.541029 -1.11791,1.89774 -3.17535,5.28087 -4.23361,7.36649 -0.36329,0.71595 -1.40309,1.5329 -0.96599,2.20633 0.732,1.12774 2.39378,1.22491 3.59067,1.83734 0.39817,-0.50282 0.82572,-0.98373 1.19452,-1.50848 1.46172,-2.0798 2.79491,-4.38437 4.08112,-6.5605 0.81809,-1.38414 1.63273,-2.77036 2.43569,-4.16334 0.74799,-1.29763 2.14856,-2.41206 2.21706,-3.908299 0.0763,-1.666734 -1.21647,-3.107376 -1.82471,-4.661027 -0.26778,-0.0189 -0.57151,-0.185953 -0.80334,-0.05102 -1.43036,0.833462 -3.60048,3.577588 -4.43413,4.570886 -2.79421,3.32938 -5.42868,6.79029 -8.26297,10.08657 0.66925,1.08386 1.09045,2.36772 2.00776,3.25157 0.25073,0.24151 0.21188,-0.66407 0.34284,-0.98672 0.30731,-0.75712 0.65404,-1.49772 0.97123,-2.25075 0.009,-0.0227 2.05298,-4.86399 1.97461,-5.09756 -0.48231,-1.43736 -1.92198,-2.34535 -2.88297,-3.51802 -0.29344,0.0446 -0.63975,-0.0401 -0.88035,0.13379 -1.58971,1.14837 -4.16405,4.58238 -5.03235,5.75433 -1.22961,1.65971 -2.37702,3.37882 -3.55159,5.07791 -3.52715,5.10221 -2.74034,3.95894 -5.78956,8.73694 0.68382,1.3928 1.20491,2.87804 2.05147,4.17835 0.1056,0.16214 0.41081,-0.0469 0.55229,-0.17877 0.58821,-0.54898 1.07766,-1.19585 1.58764,-1.81818 3.23803,-3.95139 6.19957,-8.12565 9.55266,-11.98496 1.34143,-1.56151 2.64762,-3.15398 4.02428,-4.68454 1.15537,-1.28454 3.05584,-2.10848 3.56946,-3.75806 0.34685,-1.1139 -0.50055,-2.46523 -1.40064,-3.20745 -0.45441,-0.374551 -0.23387,1.15615 -0.40271,1.7204 -0.74628,2.49381 -1.7602,4.90344 -2.37866,7.43815 -0.77367,2.64332 -1.56437,5.22678 -2.2203,7.90102 -0.19975,0.81442 -0.94902,1.74161 -0.51906,2.46157 3.41453,5.71744 4.13672,0.96095 5.13506,-1.42118 1.60816,-4.22868 3.19324,-8.44902 4.59285,-12.75295 1.25875,-3.87077 2.50809,-7.768856 3.05006,-11.819149 -1.23277,-0.791924 -2.30554,-1.92068 -3.6983,-2.375735 -0.38208,-0.124725 -0.57917,0.568063 -0.79317,0.908296 -0.40183,0.638929 -0.71859,1.328315 -1.04233,2.010142 -1.64185,3.457738 -3.06396,7.023526 -4.46338,10.583506 -0.51174,1.4318 -1.04442,2.8563 -1.5352,4.29543 -0.50452,1.47942 -0.9558,2.97653 -1.4504,4.45928 -1.52724,4.57852 -3.10323,9.15556 -5.01204,13.59095 z" />
      <path
         style="opacity:1;fill:#d40000;fill-opacity:1;stroke-width:1.00157;stroke-dasharray:none;paint-order:fill markers stroke"
         id="path35"
         d="m 199.09645,135.00415 c -0.0437,-0.30917 -0.10776,-0.61599 -0.13115,-0.9272 -0.10401,-1.38501 -0.0383,-1.73348 0.0806,-3.17578 0.16716,-2.0264 0.44542,-4.03061 0.71775,-6.04502 0.52205,-3.68526 1.16098,-7.35004 1.80734,-11.01479 0.28191,-1.45822 0.63307,-2.90241 0.89543,-4.36433 0.0433,-0.24114 0.1056,-0.48034 0.12412,-0.72473 0.0314,-0.41469 0.0166,-0.83157 0.0249,-1.24735 0.0166,-3.28483 0.37982,-6.57309 0.89597,-9.816042 0.227,-1.348497 0.49245,-2.687811 0.62043,-4.050066 -0.0231,-0.964233 0.11989,-1.608038 0.67206,-2.39142 0.21464,-0.22904 0.44985,-0.518552 0.73951,-0.661682 0.20255,-0.100158 0.43122,-0.135307 0.6452,-0.207874 0.33267,-0.11263 0.65677,-0.252095 0.99461,-0.348095 0.83818,-0.238488 2.12449,-0.470589 2.95172,-0.63326 2.94102,-0.409285 5.75731,-0.705562 8.62132,-1.520881 2.02781,-0.751786 3.83808,-1.984328 5.63582,-3.16955 1.35212,-0.891553 2.48203,-2.112718 3.50596,-3.36121 0.90223,-1.188812 1.49508,-2.555603 2.05083,-3.929725 0.52521,-1.263081 0.98336,-2.550275 1.43554,-3.840643 0.19956,-0.66875 0.50329,-1.429115 0.30641,-2.140838 -0.0727,-0.262677 -0.13633,-0.586205 -0.36764,-0.730356 -4.33967,-2.704894 -8.82601,-5.166992 -13.23901,-7.750488 -1.47687,-0.425083 -2.98477,-0.572069 -4.3322,0.300473 -0.2553,0.165543 -0.4774,0.377196 -0.71611,0.56553 -0.19944,0.213922 -0.42563,0.405392 -0.59833,0.64131 -0.2087,0.284977 -0.36359,0.605934 -0.53917,0.91253 -0.78419,1.369171 -1.44307,2.792541 -2.00056,4.26667 -0.78794,1.920492 -1.57891,3.839358 -2.3671,5.759585 -0.58449,1.241045 -1.1762,2.486967 -1.88286,3.664063 -0.71031,1.110992 -1.46291,2.201877 -2.27511,3.242986 -1.0406,1.309908 -2.11256,2.592755 -3.16462,3.893555 -1.15,1.311383 -1.55664,2.918287 -1.85179,4.589103 -0.18894,1.07486 -0.24181,2.161927 -0.25444,3.250431 -0.0394,1.066999 0.36405,2.067893 0.67801,3.067767 0.29553,0.90395 0.69696,1.764435 1.03547,2.652813 0.40614,1.037514 0.54429,2.134904 0.69745,3.228734 0.25781,1.02157 0.48248,2.04102 0.5905,3.08999 0.0681,0.84541 0.25935,1.67445 0.37138,2.51615 0.0606,1.05044 0.0961,2.10391 0.0977,3.15632 0.14351,1.56189 0.0491,3.12994 0.02,4.69429 -0.0562,1.25601 0.25402,2.47321 0.45921,3.70102 0.0117,0.0711 0.30837,2.01479 0.32187,2.1032 0.16879,0.99923 0.31131,2.03988 0.79771,2.9461 0.18792,0.34998 0.50734,0.77227 0.73697,1.09213 0.50754,0.65628 1.1347,1.21327 1.64019,1.87079 0.25663,0.33374 0.57783,0.85988 0.79534,1.20231 3.13202,4.9621 4.6735,4.19837 14.16222,8.04869 0.55774,0.2264 1.48275,-3.86101 1.54848,-4.14901 0.38425,-2.29021 0.84762,-4.58268 0.95043,-6.90913 0.0106,-0.23735 0.0433,-4.0944 0.0453,-4.32317 -0.0215,-1.23202 -0.0336,-3.14068 -0.14286,-4.37023 -0.0744,-0.83668 -0.20704,-1.66712 -0.31234,-2.50046 -0.34855,-2.75868 -0.72733,-5.5087 -1.02901,-8.27316 -0.54919,-4.43895 -1.00167,-8.884501 -1.37216,-13.341018 -0.17908,-2.611351 -0.52492,-5.219678 -0.29496,-7.836737 0.284,-1.605052 0.31389,-2.165745 1.98319,-2.372938 0.23267,0.003 0.46719,-0.02268 0.69803,0.0076 1.19299,0.151559 2.7843,0.66463 3.84753,1.220825 0.27118,0.141732 0.51879,0.325039 0.77819,0.48737 -3.93478,-2.246324 -7.86956,-4.492649 -11.80435,-6.738973 0.21313,0.195401 0.45845,0.360567 0.63939,0.586091 0.20625,0.257008 0.37478,0.546369 0.51026,0.846766 0.56334,1.248944 0.66416,2.640264 0.83886,3.978292 0.43367,3.672416 -0.51802,7.229292 -1.48496,10.734879 -0.89755,3.056806 -2.17013,5.971503 -3.52359,8.847683 -0.94668,1.87578 -1.91589,3.74786 -2.74453,5.68025 -0.007,0.0151 -1.30861,3.29273 -1.32081,3.32342 -0.91038,2.17757 -1.50503,4.46203 -2.18245,6.71637 -0.16626,0.55336 -0.88831,2.78037 -1.06934,3.34106 -0.17038,0.5051 -0.34318,1.0094 -0.51114,1.51529 -0.34208,1.0303 -0.45591,1.4815 -0.85458,2.45216 -0.35361,0.86094 -0.79967,1.67395 -1.24718,2.48795 -0.31922,0.48529 -0.66457,1.01578 -1.11033,1.40149 -0.33668,0.2914 -0.85643,0.44991 -1.25869,0.60752 -1.89552,0.51609 -3.87777,0.54519 -5.82861,0.60397 -2.07713,0.0151 -4.15437,0.0113 -6.23145,-0.0113 -0.82624,-0.068 -1.64871,0.0401 -2.4709,0.1028 -0.20141,0.0151 -0.7679,-0.0771 -0.60459,0.042 12.25492,8.92328 7.70924,10.19399 13.34172,8.2955 4.36333,-0.94681 8.83747,-1.33671 13.28775,-1.60982 3.36012,-0.17877 6.72478,-0.17272 10.08771,-0.11678 0,0 -11.37445,-8.23272 -11.37445,-8.23272 v 0 c -3.2289,0.18142 -6.45939,0.32844 -9.69048,0.4656 -0.17669,0.0113 -5.56944,0.26835 -5.7999,0.28649 -2.80924,0.21921 -5.59856,0.70938 -8.41723,0.83021 -5.94723,0.0571 -2.02846,-0.20599 10.63725,8.66619 0.13607,0.0949 0.3281,-0.054 0.49348,-0.0699 0.51799,-0.0499 0.95454,-0.0559 1.47544,-0.0669 0.27923,-0.0113 0.55848,-0.0113 0.83772,-0.0151 2.05311,-0.0151 4.10753,-0.0113 6.15879,-0.10696 2.14721,-0.0881 4.34978,-0.13719 6.38579,-0.89918 0.22817,-0.11112 0.465,-0.20599 0.68454,-0.33298 1.00336,-0.58141 1.59184,-1.60879 2.1324,-2.59431 0.40663,-0.91389 0.85313,-1.81708 1.16864,-2.76839 0.33929,-1.02312 0.40026,-1.51479 0.68075,-2.5776 0.13637,-0.51681 0.28967,-1.0289 0.43447,-1.54341 1.0477,-3.33135 1.9995,-6.69562 3.19901,-9.97753 1.19225,-3.04075 2.68877,-5.93488 4.0406,-8.9048 0.25047,-0.51738 0.50092,-1.03475 0.75139,-1.5521 0.23173,-0.51174 0.45451,-1.02761 0.69523,-1.53517 0.24696,-0.52066 0.53588,-1.02145 0.76758,-1.54907 0.63293,-1.4414 0.97582,-2.98186 1.37506,-4.497 0.52717,-2.321987 0.30255,-1.398233 0.91081,-3.797666 0.16921,-0.667464 0.37331,-1.326841 0.51102,-2.001486 0.12639,-0.619087 0.19529,-1.248605 0.28029,-1.874684 0.0831,-0.612359 0.1957,-1.222979 0.22394,-1.84029 0.0238,-0.518211 -0.0458,-1.036535 -0.0687,-1.554822 -0.0644,-1.646249 -0.14147,-3.837656 -0.72179,-5.389833 -1.89569,-5.070387 -11.79754,-7.689789 -13.64237,-8.787477 -1.61811,-0.63137 -3.42226,-1.213833 -5.18491,-1.074331 -0.29518,0.02268 -0.58001,0.119433 -0.87004,0.17915 -0.27526,0.110362 -0.5653,0.188976 -0.82579,0.330709 -1.36524,0.742677 -1.78174,2.250784 -1.90029,3.689688 -0.10435,2.744655 0.0514,5.497171 0.48595,8.211099 0.63457,4.540082 1.31483,9.072794 1.94137,13.613363 0.0963,0.94968 0.19268,1.89937 0.28898,2.84905 0.0878,0.92768 0.17053,1.85586 0.26351,2.78302 0.3064,3.05586 0.67068,6.11274 0.65097,9.19007 -0.0567,3.61451 -0.34492,7.23012 -1.1337,10.76644 -0.23603,0.76592 -0.41487,1.61401 -0.88767,2.29039 -0.0666,0.0949 -0.40267,0.11301 -0.30293,0.17235 4.11052,2.4599 8.33141,4.73053 12.48474,7.11741 0.16943,0.0971 -0.37489,-0.13077 -0.53134,-0.24793 -0.18569,-0.13909 -0.31782,-0.33789 -0.47672,-0.5071 -0.38036,-0.59399 -0.66528,-1.24691 -1.05769,-1.83069 -0.35002,-0.52071 -0.82583,-0.93502 -1.22584,-1.41362 -1.01436,-0.94938 -1.79153,-2.0084 -2.07123,-3.40309 -0.19839,-1.04882 -0.35029,-2.09832 -0.49533,-3.15579 -0.0741,-0.54009 -0.18955,-1.07618 -0.22129,-1.62043 -0.014,-0.2366 0.0102,-0.4735 0.0155,-0.71025 -0.0265,-1.55849 -0.11947,-3.12118 0.0238,-4.67694 -0.004,-1.07482 0.0333,-2.14908 -0.0208,-3.22352 -0.003,-0.85917 -0.0479,-1.73552 -0.33955,-2.55194 -0.1022,-1.0986 -0.21883,-2.21031 -0.56077,-3.26411 -0.34133,-1.09025 -0.19805,-2.28813 -0.62691,-3.36968 -0.13689,-0.49156 -0.26355,-0.9925 -0.44827,-1.46918 -0.13224,-0.34129 -0.19324,-0.4264 -0.36967,-0.74649 -0.0625,-0.15383 -0.0941,-0.31862 -0.14117,-0.47781 -0.37896,-0.82435 -0.68495,-1.70211 -0.90496,-2.58085 -0.0193,-1.045038 -0.0557,-2.092156 0.0144,-3.136024 0.14793,-1.447786 0.4639,-2.798249 1.42857,-3.94046 1.01864,-1.334362 2.14852,-2.581909 3.22172,-3.872353 0.84404,-1.097197 1.71088,-2.182186 2.40423,-3.38434 0.72584,-1.25605 1.35185,-2.567698 1.90049,-3.910866 0.75477,-1.941921 1.33938,-3.944806 2.15606,-5.863786 0.77234,-1.743685 1.5226,-3.637039 2.95711,-4.949102 0.17109,-0.09487 0.32931,-0.218079 0.51324,-0.284599 1.2028,-0.435401 2.54567,0.179528 3.59337,0.721626 -3.96756,-2.346482 -7.97148,-4.632567 -11.90272,-7.039446 -0.0113,-0.0076 0.77841,0.09449 0.86498,0.201071 0.2058,0.25285 -0.13447,0.8592 -0.12975,1.117417 -0.34688,1.280693 -0.66076,2.579452 -1.24278,3.779754 -0.54389,1.229707 -1.04334,2.469657 -1.87944,3.543156 -0.94064,1.151093 -1.90674,2.277392 -3.18331,3.076687 -1.63384,1.184806 -3.34523,2.255735 -5.29832,2.83457 -2.68936,0.811805 -5.48364,1.160693 -8.25279,1.593524 -1.81476,0.306898 -3.87976,0.472252 -5.48569,1.471219 -0.39598,0.246425 -0.69598,0.630841 -0.99902,0.973418 -0.68792,0.970242 -1.13515,1.880844 -1.09172,3.104579 -0.0295,1.390904 -0.12892,2.779087 -0.23814,4.16572 -0.20467,3.274923 -0.24979,6.574979 -0.8906,9.805795 -0.0843,0.37682 -0.19212,0.7491 -0.25293,1.13038 -0.0385,0.24151 -0.0257,0.48813 -0.0441,0.73183 -0.11448,1.52168 -0.3191,3.03454 -0.50851,4.54809 -0.45871,3.72435 -1.1697,7.41045 -1.59883,11.13925 -0.48092,3.30324 -0.97228,6.60662 -1.62008,9.88116 z" />
      <rect
         style="opacity:1;fill:url(#pattern65);fill-opacity:1;stroke:none;stroke-width:1.00157;stroke-dasharray:none;paint-order:fill markers stroke"
         id="rect35"
         width="30.421515"
         height="67.337463"
         x="209.19064"
         y="68.70475" />
      <path
         sodipodi:type="star"
         style="opacity:1;fill:#00ff00;fill-opacity:1;stroke-width:0.264999;stroke-dasharray:none;paint-order:fill markers stroke"
         id="path62"
         inkscape:flatsided="false"
         sodipodi:sides="3"
         sodipodi:cx="-89.624542"
         sodipodi:cy="244.63611"
         sodipodi:r1="3.5868866"
         sodipodi:r2="1.7934433"
         sodipodi:arg1="0.98279372"
         sodipodi:arg2="2.0299913"
         inkscape:rounded="0"
         inkscape:randomized="0"
         d="m -87.634896,247.62058 -2.784548,-1.37681 -2.784549,-1.37681 2.584627,-1.72309 2.584627,-1.72308 0.199922,3.09989 z"
         inkscape:transform-center-x="-0.045303227"
         inkscape:transform-center-y="0.024400118"
         transform="matrix(3.4726423,0,0,5.4335259,345.68424,-1244.9594)" />
      <path
         sodipodi:type="star"
         style="opacity:1;fill:#00ff00;fill-opacity:1;stroke:none;stroke-width:0.264999;stroke-dasharray:none;paint-order:fill markers stroke"
         id="path65"
         inkscape:flatsided="false"
         sodipodi:sides="3"
         sodipodi:cx="45.461369"
         sodipodi:cy="18.458012"
         sodipodi:r1="9.2542849"
         sodipodi:r2="3.6756563"
         sodipodi:arg1="1.4968573"
         sodipodi:arg2="2.6703935"
         inkscape:rounded="0"
         inkscape:randomized="0"
         d="m 46.144998,27.687012 -3.95873,-7.560417 -5.059263,-5.691043 8.526878,0.351848 7.458219,-1.535929 -4.568148,7.208569 z"
         inkscape:transform-center-x="-0.045220379"
         inkscape:transform-center-y="0.59390543" />
      <path
         style="opacity:1;fill-opacity:1;stroke:none;stroke-width:1.00157;stroke-dasharray:none;paint-order:fill markers stroke"
         d="m 58.792149,39.308663 c 2.524089,-3.924246 5.408069,-7.552555 8.203552,-11.279887 0.73946,-0.985928 1.214959,-2.170734 2.050888,-3.076309 0.557292,-0.603741 1.469919,-0.786293 2.050889,-1.367282 0.693063,-0.693052 1.08161,-1.63971 1.709084,-2.392667 3.37471,-4.049688 7.599367,-7.257562 11.279879,-10.938104"
         id="path66" />
      <path
         style="opacity:1;fill-opacity:1;stroke:none;stroke-width:1.00157;stroke-dasharray:none;paint-order:fill markers stroke"
         d="m 70.072039,44.094074 c 0.166753,-1.566728 -0.258595,-3.233953 0,-4.785411 0.02646,-0.159118 0.31903,-0.182174 0.341821,-0.34167 0.238564,-1.669908 -0.277228,-3.463748 0,-5.127231 0.100875,-0.605216 0.51507,-1.119118 0.683629,-1.709065 0.216152,-0.75651 0.23384,-3.237997 0.341821,-4.101808 0.214224,-1.713751 0.741721,-3.424856 1.025442,-5.127193 0.219402,-1.31641 0.0723,-6.639005 0.341821,-7.178117 1.026248,-2.05251 0.146268,-4.34502 0.68363,-6.4944754 0.392757,-1.5710741 0.34182,-0.07748 0.34182,-1.0254615"
         id="path67" />
    </pattern>
    <pattern
       patternUnits="userSpaceOnUse"
       width="195.85987"
       height="226.96497"
       patternTransform="translate(-388.6434,384.1998)"
       preserveAspectRatio="xMidYMid"
       id="pattern78"
       inkscape:label="pattern78">
      <rect
         style="opacity:0.491566;fill:#800080;fill-opacity:1;stroke:none;stroke-width:1.00157;stroke-dasharray:none;paint-order:fill markers stroke"
         id="rect76"
         width="179.45273"
         height="9.9126091"
         x="6.1526899"
         y="101.86079" />
      <rect
         style="opacity:1;fill:#00ffff;fill-opacity:1;stroke:none;stroke-width:1.00157;stroke-dasharray:none;paint-order:fill markers stroke"
         id="rect71"
         width="6.8362951"
         height="226.28136"
         x="0"
         y="0" />
      <rect
         style="opacity:1;fill:#00ffff;fill-opacity:1;stroke:none;stroke-width:1.00157;stroke-dasharray:none;paint-order:fill markers stroke"
         id="rect72"
         width="30.079699"
         height="35.206921"
         x="17.77438"
         y="171.59105" />
      <path
         sodipodi:type="star"
         style="opacity:1;fill:#00ffff;fill-opacity:1;stroke:none;stroke-width:0.264999;stroke-dasharray:none;paint-order:fill markers stroke"
         id="path72"
         inkscape:flatsided="false"
         sodipodi:sides="3"
         sodipodi:cx="-96.76918"
         sodipodi:cy="142.16931"
         sodipodi:r1="5.3205199"
         sodipodi:r2="2.6602602"
         sodipodi:arg1="0.55499573"
         sodipodi:arg2="1.6021933"
         inkscape:rounded="0"
         inkscape:randomized="0"
         d="m -92.247256,144.9729 -4.605435,-0.14464 -4.605439,-0.14464 2.427987,-3.91611 2.427983,-3.9161 2.177452,4.06075 z"
         inkscape:transform-center-x="0.083509117"
         inkscape:transform-center-y="-1.2571542"
         transform="matrix(3.7795276,0,0,3.7795276,397.18877,-383.85798)" />
      <rect
         style="opacity:0.491566;fill:#00ffff;fill-opacity:1;stroke:none;stroke-width:1.00157;stroke-dasharray:none;paint-order:fill markers stroke"
         id="rect73"
         width="27.345181"
         height="32.814217"
         x="18.458012"
         y="94.340843" />
      <path
         sodipodi:type="star"
         style="opacity:1;fill:#00ffff;fill-opacity:1;stroke:none;stroke-width:0.264999;stroke-dasharray:none;paint-order:fill markers stroke"
         id="path74"
         inkscape:flatsided="false"
         sodipodi:sides="3"
         sodipodi:cx="33.83968"
         sodipodi:cy="74.173775"
         sodipodi:r1="18.824656"
         sodipodi:r2="9.4123287"
         sodipodi:arg1="2.6292032"
         sodipodi:arg2="3.6764007"
         inkscape:rounded="0"
         inkscape:randomized="0"
         d="m 17.43257,83.402774 8.309058,-14.026236 8.309059,-14.026236 7.992548,14.208972 7.992547,14.208975 -16.301605,-0.182737 z"
         inkscape:transform-center-x="0.027913294"
         inkscape:transform-center-y="-1.2209211" />
      <rect
         style="opacity:1;fill:#00ffff;fill-opacity:1;stroke:none;stroke-width:1.00157;stroke-dasharray:none;paint-order:fill markers stroke"
         id="rect74"
         width="29.054255"
         height="35.890549"
         x="20.508907"
         y="12.647167" />
      <rect
         style="opacity:0.491566;fill:#00ffff;fill-opacity:1;stroke:none;stroke-width:1.00157;stroke-dasharray:none;paint-order:fill markers stroke"
         id="rect75"
         width="10.938065"
         height="225.93954"
         x="184.9218"
         y="1.0254195" />
      <rect
         style="opacity:0.491566;fill:#00ffff;fill-opacity:1;stroke:none;stroke-width:1.00157;stroke-dasharray:none;paint-order:fill markers stroke"
         id="rect77"
         width="40.334137"
         height="75.541061"
         x="65.286613"
         y="15.723454" />
      <rect
         style="opacity:0.491566;fill:#00ffff;fill-opacity:1;stroke:none;stroke-width:1.00157;stroke-dasharray:none;paint-order:fill markers stroke"
         id="rect78"
         width="55.373993"
         height="104.93713"
         x="59.817616"
         y="121.00238" />
      <path
         style="opacity:0.491566;fill:#00ffff;fill-opacity:1;stroke:none;stroke-width:1.00157;stroke-dasharray:none;paint-order:fill markers stroke"
         d="M 146.98037,225.59772 148.00582,0.68363131 c 0,0 -51.614032,26.66154369 -26.66156,125.10421869 24.95248,98.44263 27.00337,-124.0787951 27.00337,-124.0787951 0,0 68.02114,72.4647311 32.81422,149.0312651 C 145.95493,227.30683 148.00582,3.0763368 148.00582,3.0763368"
         id="path78" />
    </pattern>
  </defs>
  <g
     inkscape:label="Слой 1"
     inkscape:groupmode="layer"
     id="layer1">
    <rect
       style="stroke:none;fill:url(#pattern70)"
       transform="scale(0.26458333)"
       width="243.43871"
       height="140.62218"
       x="-385.90888"
       y="873.33673"
       id="rect70" />
    <rect
       style="fill:url(#pattern80);stroke:none;stroke-width:0.264583"
       width="51.821255"
       height="60.051147"
       x="-161.40646"
       y="166.88153"
       id="rect79" />
    <path
       sodipodi:type="star"
       style="opacity:1;fill:url(#pattern79);fill-opacity:1;stroke:none;stroke-width:0.264999;stroke-dasharray:none;paint-order:fill markers stroke"
       id="path69"
       inkscape:flatsided="false"
       sodipodi:sides="3"
       sodipodi:cx="62.221684"
       sodipodi:cy="137.46649"
       sodipodi:r1="69.030579"
       sodipodi:r2="34.515289"
       sodipodi:arg1="0.59526992"
       sodipodi:arg2="1.6424675"
       inkscape:rounded="0"
       inkscape:randomized="0"
       d="M 119.37881,176.17416 59.75005,171.89317 0.12129337,167.61218 33.643122,118.11265 67.164949,68.613134 93.271879,122.39365 Z"
       inkscape:transform-center-x="2.4716337"
       inkscape:transform-center-y="-15.072844" />
    <path
       style="opacity:0.491566;fill:#00ffff;fill-opacity:1;stroke:none;stroke-width:0.149708;stroke-dasharray:none;paint-order:fill markers stroke"
       d="m -82.043181,136.59558 c 9.61891,-14.67637 31.668411,-26.67147 13.762441,-16.93427 -17.905972,9.7372 16.574122,0.14112 8.731011,10.86616 -7.843112,10.72503 -25.305134,-14.25301 -24.417235,-11.71287"
       id="path80" />
    <path
       style="opacity:0.491566;fill:#00ffff;fill-opacity:1;stroke:none;stroke-width:0.149708;stroke-dasharray:none;paint-order:fill markers stroke"
       d="m -83.423218,192.37002 c 9.61891,-14.67637 31.668411,-26.67147 13.762441,-16.93427 -17.905972,9.7372 16.574122,0.14112 8.731011,10.86616 -7.843112,10.72503 -25.305134,-14.25301 -24.417235,-11.71287"
       id="path80-9" />
    <path
       style="opacity:0.491566;fill:#00ffff;fill-opacity:1;stroke:none;stroke-width:0.210024;stroke-dasharray:none;paint-order:fill markers stroke"
       d="m -68.402287,182.55733 c 12.018912,-23.11679 39.569954,-42.01033 17.196289,-26.67323 -22.373667,15.33711 20.709509,0.22228 10.909474,17.11533 -9.800036,16.89304 -31.618984,-22.44997 -30.509546,-18.44899"
       id="path80-6" />
    <path
       style="opacity:0.491566;fill:#00ffff;fill-opacity:1;stroke:none;stroke-width:0.0951215;stroke-dasharray:none;paint-order:fill markers stroke"
       d="m -56.957622,153.69705 c 5.010908,-11.37358 16.49745,-20.66931 7.169452,-13.12337 -9.327998,7.54594 8.63418,0.10937 4.548363,8.42083 -4.085817,8.31147 -13.182543,-11.04551 -12.719997,-9.077"
       id="path80-3" />
    <path
       style="opacity:0.491566;fill:#00ffff;fill-opacity:1;stroke:none;stroke-width:0.264999;stroke-dasharray:none;paint-order:fill markers stroke"
       d="m -154.7582,89.017938 c 0,0 24.30088,-7.418162 9.72035,-25.06827 -14.58052,-17.650108 -9.72035,25.06827 -9.72035,25.06827 z"
       id="path81" />
    <path
       style="opacity:0.491566;fill:#00ffff;fill-opacity:1;stroke:none;stroke-width:0.264999;stroke-dasharray:none;paint-order:fill markers stroke"
       d="m -136.51625,119.04997 c 0,0 24.30088,-7.41815 9.72035,-25.068262 -14.58052,-17.650108 -9.72035,25.068262 -9.72035,25.068262 z"
       id="path81-9" />
    <path
       style="opacity:0.491566;fill:#00ffff;fill-opacity:1;stroke:none;stroke-width:0.264999;stroke-dasharray:none;paint-order:fill markers stroke"
       d="m -116.14185,92.075134 c 0,0 24.300881,-7.418162 9.72035,-25.06827 -14.58052,-17.650108 -9.72035,25.06827 -9.72035,25.06827 z"
       id="path81-3" />
    <path
       style="opacity:0.491566;fill:#00ffff;fill-opacity:1;stroke:none;stroke-width:0.264999;stroke-dasharray:none;paint-order:fill markers stroke"
       d="m -136.11532,60.639098 c 0,0 24.30088,-7.418162 9.72035,-25.06827 -14.58052,-17.650108 -9.72035,25.06827 -9.72035,25.06827 z"
       id="path81-6" />
  </g>
</svg>
