<svg xmlns="http://www.w3.org/2000/svg" fill="none" viewBox="0 0 126 73">
  <path fill="#0F1D38" fill-rule="evenodd" d="M52.6192 21.7926C52.6192 18.7316 50.1376 16.25 47.0766 16.25C44.0156 16.25 41.5339 18.7316 41.5339 21.7926V51.2082C41.5339 54.2692 44.0156 56.75 47.0766 56.75C50.1376 56.75 52.6192 54.2692 52.6192 51.2082V21.7926ZM36.0253 36.5008C36.0253 33.439 33.5445 30.9582 30.4835 30.9582H6.02795C2.96693 30.9582 0.485308 33.439 0.485308 36.5008V51.2053C0.485308 54.2655 2.96693 56.7463 6.02795 56.7463C9.08898 56.7463 11.5706 54.2655 11.5706 51.2053L11.5698 42.9501C11.5698 42.4507 11.9745 42.0467 12.474 42.0467L30.4835 42.0427C33.5445 42.0427 36.0253 39.5602 36.0253 36.5008ZM67.6788 21.7928C67.6788 18.731 65.1972 16.2502 62.1361 16.2502C59.0751 16.2502 56.5935 18.731 56.5935 21.7928V50.726C56.5935 53.7862 59.0751 56.2679 62.1361 56.2679L86.8977 56.2662C88.9378 56.2662 90.7217 55.1629 91.683 53.5194L104.183 31.9853L111.913 45.1818H101.393C98.3339 45.1818 95.8506 47.6626 95.8506 50.7244C95.8506 53.7854 98.3339 56.2662 101.393 56.2662L116.746 56.2679C121.337 56.2679 125.058 52.5467 125.058 47.9564C125.058 46.4393 124.65 45.0169 123.94 43.7937L109.72 19.4899C108.622 17.5624 106.547 16.2616 104.169 16.2616C101.796 16.2616 99.7228 17.5616 98.6228 19.4834L84.2855 44.1797C83.9885 44.7721 83.3748 45.1793 82.6665 45.1793H69.4896C68.4916 45.1793 67.6829 44.3698 67.6829 43.3718L67.6788 21.7928Z" clip-rule="evenodd"/>
  <path fill="#C6142A" d="M33.2551 16.7518C36.3169 16.7518 38.7977 19.2334 38.7977 22.2953C38.7977 25.3563 36.3169 27.8371 33.2551 27.8371H5.54265C2.48162 27.8371 0 25.3563 0 22.2953C0 19.2334 2.48162 16.7518 5.54265 16.7518H33.2551Z"/>
</svg>
