<svg xmlns="http://www.w3.org/2000/svg" fill="none" viewBox="0 0 97 73">
  <path fill="#D6262D" fill-rule="evenodd" d="M69.1012 47.558C71.0498 47.5672 72.8172 48.3825 73.8461 50.4724C74.0268 50.8391 74.1823 51.2533 74.315 51.6699C74.7206 52.9467 74.9067 54.244 74.9067 54.244L74.9296 59.6252C74.9296 59.6252 74.8363 62.2143 74.0432 63.9594C73.9323 64.2031 73.8095 64.4325 73.6753 64.6461C72.5923 66.3877 70.7829 67.2051 68.802 67.1298C66.783 67.053 65.9074 65.8045 65.9074 65.8045C65.9074 65.8045 65.3851 65.7013 65.2116 65.7678C65.038 65.8341 64.9697 66.271 64.9697 66.271L64.9818 68.9715L64.9872 70.2396C64.9872 70.2396 65.1286 70.7111 65.5827 71.2177C66.0374 71.7241 66.4905 71.8946 66.4905 71.8946L66.4932 72.5L58.6282 72.463L58.6255 71.8577C58.6255 71.8577 59.2155 71.4904 59.597 71.1894C59.9786 70.8888 60.2887 70.2174 60.2887 70.2174L60.2837 68.9718L60.2652 64.6463L60.2095 51.6696L60.2013 49.803C60.2013 49.803 59.8863 49.4315 59.3274 48.9246C58.7685 48.4175 58.2811 48.3815 58.2811 48.3815L58.2789 47.7762L65.0652 47.8082C65.0652 47.8082 65.0319 48.1779 65.0685 48.6489C65.1056 49.1198 65.4877 49.0543 65.4877 49.0543C65.4877 49.0543 67.152 47.5488 69.1012 47.558ZM53.1158 47.4829C55.065 47.492 56.9476 48.3081 57.8613 50.3974C58.0332 50.79 58.1866 51.2311 58.3203 51.6702C58.7041 52.93 58.9219 54.169 58.9219 54.169L58.9448 59.5502C58.9448 59.5502 58.8515 62.1394 58.0584 63.8844C57.935 64.1558 57.7969 64.4095 57.6446 64.646C56.5567 66.3354 54.7702 67.1291 52.8172 67.0549C50.7982 66.978 49.9232 65.7296 49.9232 65.7296C49.9232 65.7296 49.4003 65.6263 49.2267 65.6929C49.0526 65.7591 48.9854 66.1961 48.9854 66.1961L48.9969 68.9715L49.0024 70.1646C49.0024 70.1646 49.1432 70.6361 49.5984 71.1425C50.0526 71.6491 50.5056 71.8194 50.5056 71.8194L50.5083 72.4251L42.643 72.388L42.6405 71.7827C42.6405 71.7827 43.2306 71.4155 43.6121 71.1145C43.9935 70.8138 44.304 70.1424 44.304 70.1424L44.299 68.9715L44.2805 64.646L44.2248 51.6696L44.2165 49.728C44.2165 49.728 43.9015 49.3566 43.3427 48.8495C42.7836 48.3427 42.2964 48.3065 42.2964 48.3065L42.2936 47.7014L49.0799 47.7331C49.0799 47.7331 49.0471 48.1027 49.0837 48.5739C49.1203 49.0448 49.5029 48.9794 49.5029 48.9794C49.5029 48.9794 51.1671 47.4738 53.1158 47.4829ZM84.4616 47.1281C89.3686 47.185 88.8643 51.2182 88.8643 51.2182L88.8659 51.6697L88.92 64.1999C88.92 64.1999 88.9369 64.4 89.0438 64.6461H89.0397C89.1557 64.909 89.367 65.2232 89.76 65.4146C90.445 65.748 90.9095 65.6891 90.9095 65.6891L90.9128 66.3954L84.8922 66.3672L84.5412 65.6593L83.6363 65.6548L83.6256 65.6751C83.5833 65.7425 83.3847 65.9761 82.5255 66.356C81.6227 66.7555 80.4857 67.4538 78.1162 66.7027C77.0862 66.3764 76.4208 65.5366 75.9972 64.6461L76 64.6448C75.4809 63.5565 75.3237 62.3904 75.3029 61.9838C75.2647 61.2439 75.6769 59.8668 76.8193 58.5605C77.9622 57.2542 80.1156 56.2554 82.4769 55.0558C84.8382 53.8561 84.6602 52.9137 84.6591 52.5773C84.6581 52.4073 84.6564 52.0139 84.3851 51.6697L84.2868 51.5592C83.9972 51.2718 83.4817 51.0437 82.5642 51.054C81.9098 51.0617 81.1641 51.3199 80.4486 51.6697L80.4431 51.671C79.0774 52.3434 77.8173 53.3567 77.5237 53.5995L77.4596 53.6532L77.4514 51.6699L77.441 49.315C77.441 49.315 79.4497 47.0703 84.4616 47.1281ZM37.0005 46.9028C41.9077 46.9597 41.403 50.9927 41.403 50.9927L41.4058 51.6697L41.4586 63.9747C41.4586 63.9747 41.4875 64.3073 41.6999 64.6461L41.8062 64.797C41.9256 64.9452 42.0854 65.0854 42.299 65.1892C42.9838 65.5228 43.4486 65.4637 43.4486 65.4637L43.4516 66.1702L37.431 66.142L37.0799 65.4339L36.1752 65.4297L36.1594 65.4599C36.1011 65.5583 35.8546 65.885 34.9955 66.265C34.0923 66.6641 33.1424 67.3368 30.7856 66.548C29.7051 66.186 29.0227 65.4455 28.5907 64.6461H28.5941C27.9638 63.4839 27.8643 62.1966 27.8418 61.7584C27.804 61.0184 28.2155 59.6413 29.3584 58.3353C30.5014 57.0287 32.6547 56.03 35.016 54.8304C37.3773 53.6307 37.1993 52.6884 37.198 52.3521C37.1974 52.2188 37.1962 51.9479 37.0648 51.6705L37.0079 51.5652C36.7755 51.18 36.2577 50.8157 35.1032 50.8288C34.3153 50.8378 33.3951 51.21 32.5546 51.6697H32.5534C31.168 52.4297 29.9985 53.4282 29.9985 53.4282L29.991 51.6697L29.9798 49.0897C29.9798 49.0897 29.99 49.0782 30.0109 49.057L30.1057 48.9655C30.6151 48.4953 32.7047 46.8532 37.0005 46.9028ZM5.2777 43.9192L15.6366 43.9678L15.5657 44.6144C15.5657 44.6144 14.5353 44.9976 13.9106 45.5123C13.3618 45.9644 13.1774 46.5114 13.1774 46.5114L13.1997 51.6697L13.2003 51.8159L14.1958 51.8206L14.3394 51.6697L19.2235 46.5398C19.2235 46.5398 19.4794 46.0234 19.479 45.8941C19.479 45.8941 19.2179 45.2458 18.9589 45.0184C18.7001 44.7907 18.3307 44.6274 18.3307 44.6274L18.291 43.9804L29.5716 44.0332L29.5744 44.6801C29.5744 44.6801 29.0941 44.4513 27.7347 45.48C27.1798 45.8997 25.7092 47.3758 24.1623 48.9767L23.4971 49.6678C22.8322 50.361 22.1754 51.0528 21.5926 51.6697C20.3956 52.9348 19.5133 53.8831 19.5133 53.8831L19.5168 54.7239L25.8975 64.069C25.8975 64.069 26.1081 64.3205 26.4601 64.644C26.5994 64.7712 26.758 64.9077 26.9338 65.0439C27.5626 65.5323 28.8539 65.7969 28.8539 65.7969L29.0043 66.477L19.53 66.4324L19.5272 65.753C19.5272 65.753 19.8571 65.3343 20.0031 65.0115C20.0486 64.9111 20.0618 64.7789 20.0584 64.6461L20.0616 64.6448C20.0509 64.348 19.9622 64.041 19.9622 64.041L15.5497 58.0691L14.5552 58.2263C14.5552 58.2263 14.1131 58.3535 13.7102 58.9338C13.3701 59.4235 13.2353 59.9666 13.2353 59.9666L13.2526 64.0096C13.2526 64.0096 13.2536 64.2202 13.6045 64.6445C13.6893 64.7456 13.7928 64.8584 13.9205 64.9829C14.5868 65.6329 15.3245 65.7332 15.3245 65.7332L15.3275 66.4125L5.81644 66.3682L5.8134 65.6887C5.8134 65.6887 6.43855 65.3362 6.95287 64.9502C7.07717 64.857 7.17994 64.7525 7.2644 64.6461C7.5294 64.3156 7.6125 63.9832 7.6125 63.9832L7.55971 51.6697L7.53746 46.4849C7.53746 46.4849 7.27667 45.8694 6.68472 45.3813C6.09289 44.8934 5.2804 44.5662 5.2804 44.5662L5.2777 43.9192ZM37.048 57.9678C37.048 57.9678 35.5185 58.3976 34.4082 59.1659C33.0946 60.0748 32.7461 61.1089 32.7495 61.916C32.7529 62.7231 33.2447 63.8018 34.672 63.9092C36.0995 64.0167 37.0654 62.0707 37.0654 62.0707L37.048 57.9678ZM84.508 57.924C84.508 57.924 82.9785 58.354 81.8683 59.1223C80.5544 60.0312 80.2062 61.0651 80.2095 61.8722C80.2133 62.6795 80.7046 63.758 82.1319 63.8654C83.5593 63.9732 84.5254 62.0272 84.5254 62.0272L84.508 57.924ZM67.7169 51.1163C67.0051 51.1129 66.4801 51.3447 66.0941 51.6702C65.1957 52.4276 65.0483 53.6935 65.0483 53.6935L65.0783 60.8235C65.0783 60.8235 65.4042 63.4876 67.8397 63.5605C70.5198 63.6402 70.6098 60.3111 70.6098 60.3111L70.5836 54.1231C70.5836 54.1231 70.3194 52.5401 69.266 51.6696C68.8703 51.345 68.3632 51.1192 67.7169 51.1163ZM51.5946 51.0445C50.8331 51.0411 50.2856 51.3067 49.8926 51.6683C49.0652 52.4311 48.926 53.6215 48.926 53.6215L48.9565 60.7512C48.9565 60.7512 49.2818 63.4161 51.7173 63.4884C54.3974 63.5684 54.488 60.2393 54.488 60.2393L54.4613 54.0512C54.4613 54.0512 54.2102 52.5485 53.2233 51.6696C52.8167 51.3051 52.285 51.0479 51.5946 51.0445ZM37.2442 0.500827L37.4924 0.508455C38.3544 0.584927 38.6185 1.02079 38.6185 1.02079L39.2178 1.02355C39.5178 1.025 39.6311 1.24269 39.8566 1.4246C40.0821 1.60676 40.1189 1.46209 40.3816 1.57188C40.6444 1.68174 41.247 2.44483 41.7012 3.53304C42.004 4.25854 42.041 5.1276 42.0444 5.9161L42.0452 6.66944L42.0533 7.0104C42.095 7.98802 42.1378 9.29142 42.1019 9.61709C42.0657 9.94272 41.5391 9.39729 41.6532 9.7962C41.7673 10.1947 42.2179 10.4503 42.2565 10.7402C42.2952 11.0298 42.0697 10.8479 42.1083 11.1376C42.1471 11.4274 42.634 11.3573 42.7094 11.5026C42.785 11.6478 42.4108 11.7906 42.4494 12.0443C42.4879 12.2979 42.8251 12.2633 42.8251 12.2633C42.8251 12.2633 42.9005 12.3359 42.8639 12.5532C42.8273 12.7701 42.6402 12.8418 42.5661 13.0222C42.4919 13.2031 42.5673 13.312 42.5673 13.312C42.5673 13.312 43.5762 13.9152 44.3349 14.9132C45.1638 16.0031 45.8436 17.3097 46.6359 18.5805C47.4281 19.8514 48.4869 22.1732 48.4869 22.1732C48.4869 22.1732 49.4128 19.7158 50.493 18.2365L52.4668 15.5307C52.4668 15.5307 52.2779 15.1677 52.0525 14.9493C51.8265 14.731 51.7888 14.5862 51.9379 14.4782C52.0874 14.3703 52.6115 14.1918 52.6851 13.9023C52.7582 13.6133 52.1949 13.2122 52.1949 13.2122C52.1933 12.9366 52.3953 12.5586 52.9405 12.4555C53.315 12.3849 53.0868 11.6237 53.0868 11.6237C53.0868 11.6237 52.3658 11.0949 52.219 10.0267C52.0639 8.90362 51.9919 9.59107 51.3871 8.24876C51.2053 7.84626 51.3828 7.30743 51.4936 6.94576C51.6043 6.58434 51.6758 5.78833 51.749 5.39037C51.8227 4.99265 52.2321 4.37895 52.7905 3.65757C53.3494 2.93614 53.9482 2.79413 54.5098 2.7243C55.0715 2.65432 55.4842 2.80124 55.708 2.58518C55.9318 2.36879 55.858 2.5858 56.5688 2.37199C57.28 2.15814 57.0922 2.1209 57.542 2.12315C57.9917 2.12526 58.4797 2.34491 58.7041 2.34582C58.9289 2.34702 58.9279 2.12961 59.2652 2.09502C59.602 2.06033 59.8285 2.38716 60.2788 2.67904C60.7302 2.97073 60.9174 3.04401 61.1806 3.29865C61.4442 3.55337 61.4485 4.53077 61.4485 4.53077C61.4485 4.53077 61.5992 4.78498 61.9005 5.1121C62.2018 5.43933 62.3895 5.65753 62.5408 5.94781C62.692 6.23809 62.7683 6.60056 62.7683 6.60056C62.7683 6.60056 63.4818 6.92964 63.8567 7.07616C64.2323 7.22268 64.1575 7.29502 64.121 7.47573C64.0839 7.65673 63.8622 8.27104 64.0134 8.66985C64.1652 9.06901 64.0156 9.17684 64.0156 9.17684C64.0158 9.20184 64.0456 9.28955 64.2803 9.68493C64.5822 10.193 64.6951 10.4473 64.7339 10.7007C64.7727 10.9544 64.5489 11.2067 64.3627 11.4593C64.1766 11.7119 64.3278 12.0381 64.3278 12.0381C64.3278 12.0381 64.3465 12.0663 64.3815 12.1188L64.5323 12.3455C65.2444 13.4169 67.6056 16.9745 68.212 17.9576C68.9287 19.1196 69.6486 21.078 69.6486 21.078C69.6259 21.102 69.6367 21.1924 70.3249 21.5878C71.1513 22.0625 72.3129 22.0679 72.3129 22.0679L72.6491 21.8883C72.9859 21.7089 73.8832 21.315 74.5944 21.2459C75.3056 21.1767 75.7555 21.1428 76.0169 20.9991C76.2784 20.8554 76.202 20.4209 76.5016 20.3858C76.8007 20.3512 77.5524 20.8615 77.7789 21.2971C78.0054 21.7325 77.8569 22.0215 77.8214 22.492C77.8002 22.7778 77.6823 23.1965 77.5688 23.5541L77.5682 23.5544L77.5141 23.7222C77.4606 23.8836 77.4117 24.0232 77.3794 24.1191C77.268 24.4443 77.4191 24.7709 77.4191 24.7709C77.4191 24.7709 78.323 25.8973 79.3776 27.1694C80.3212 28.3077 81.7782 30.3467 82.0744 30.7633L82.1281 30.8389C83.1376 32.1984 84.0764 33.3779 84.9124 34.3667C86.1995 35.8869 87.2426 36.9539 87.9259 37.5274C89.0537 38.4739 89.6907 38.4045 90.7796 39.0613C91.8691 39.718 92.8467 40.5191 94.0475 41.1039C95.2489 41.689 95.6992 41.8358 96.1114 41.8378C96.5234 41.8398 96.7489 41.9133 96.75 42.2028C96.7511 42.4924 96.4902 42.7447 95.8537 42.8866C95.5169 42.9615 95.0322 42.9954 94.4733 43.0188H94.4725C93.9766 43.0427 93.4214 43.0582 92.8576 43.0895C92.3167 43.1197 91.7143 43.0831 91.1265 43.0195C90.4079 42.9431 89.7179 42.8281 89.1847 42.7465C88.2098 42.5971 86.3752 42.7695 85.2514 42.7641C84.127 42.7589 83.8246 42.0337 83.7847 41.4541C83.7448 40.8745 84.0031 40.0069 83.8507 39.4632C83.699 38.9196 82.871 38.0104 80.9546 36.6983C79.7384 35.8655 78.7041 35.1501 77.6686 34.3679L77.0707 33.9063C76.6703 33.5927 76.2647 33.2638 75.8433 32.909C74.7353 31.976 73.5443 29.6762 73.5443 29.6762C73.5443 29.6762 72.3893 31.2274 71.6458 32.5274C71.2845 33.159 70.9668 33.714 70.5607 34.3679C70.1301 35.0574 69.6014 35.8553 68.8178 36.9673C67.2912 39.132 65.6122 40.7535 64.4173 41.689C63.4976 42.4091 62.5986 42.8078 61.9605 43.0188C61.7681 43.0813 61.6013 43.127 61.4644 43.1596C60.8691 43.3007 55.4626 43.3119 54.0345 43.02H54.0279L54.0082 43.0159C52.6213 42.7197 51.9728 40.1101 51.7807 38.9869L51.3582 36.5231C51.3582 36.5231 50.8585 35.4614 50.3787 34.3687L50.3577 34.3212L50.337 34.2737L49.3151 31.9158C49.3151 31.9158 48.9254 33.205 48.4602 34.3679L48.2967 34.7616L48.1307 35.1322C47.5364 36.3967 45.8608 38.7421 45.2268 39.4631C44.5932 40.1842 42.8043 42.3479 42.2063 42.707C41.9564 42.8572 41.5885 42.9563 41.1026 43.0188C40.414 43.1024 39.5134 43.1136 38.3868 43.0875C37.5703 43.0685 36.8413 43.0931 36.1111 43.0188L35.7543 42.9724C35.1586 42.8817 34.5524 42.7094 33.8883 42.3785C32.2738 41.5743 29.5189 36.8551 28.6507 35.3305C28.5 35.0658 28.3117 34.7355 28.1014 34.3679L28.1042 34.3661C27.0998 32.607 25.5965 29.9583 25.253 29.2688C24.8375 28.4339 24.6129 28.5054 24.6129 28.5054C24.6129 28.5054 24.427 28.8667 23.9062 29.6605C23.2067 30.7263 23.6085 30.166 22.6019 31.2835C21.6922 32.2935 20.7507 33.0372 19.2286 34.3679L18.9793 34.5853L18.7208 34.8134C16.892 36.4339 15.7355 37.5145 15.4009 38.1284C15.0663 38.7421 15.4091 40.011 15.5247 40.8079C15.6406 41.605 15.4543 41.8576 15.0064 42.2536C14.5586 42.6496 12.4969 42.3867 11.6726 42.3468C10.8484 42.3066 9.79872 42.1569 8.18865 42.4027C6.57895 42.6486 5.86829 42.8986 4.74439 42.8935C3.62042 42.8882 3.50726 42.7066 2.79454 42.4859C2.08181 42.2655 1.85733 42.3367 1.48263 42.2989C1.10792 42.261 0.993559 41.8259 0.917994 41.6447C0.842242 41.4632 1.17763 41.0667 1.17763 41.0667L1.0915 41.046C0.98593 41.0213 0.802584 40.9801 0.652656 40.9555C0.427689 40.9183 0.164452 40.6635 0.0510301 40.4097C-0.0625041 40.1557 0.0488539 39.9028 0.0488539 39.9028C0.0488539 39.9028 0.684623 39.6884 1.50803 39.4752C2.33113 39.2618 2.92949 38.9749 4.34991 38.2576C5.77044 37.5402 8.01399 36.5371 10.217 34.8822C10.4515 34.706 10.6708 34.535 10.8766 34.3679L11.326 33.9938C12.7487 32.7695 13.4726 31.7583 14.3195 30.557C15.1491 29.3799 17.8627 25.2099 18.9372 23.5541L19.0489 23.3822C19.258 23.0599 19.3814 22.8694 19.3814 22.8694L19.6792 22.4362C19.6792 22.4362 19.1909 22.1082 19.0025 21.854C18.814 21.5997 18.9609 20.8763 18.9609 20.8763C18.9609 20.8763 18.6575 20.0423 18.656 19.6802C18.6544 19.3181 19.4745 18.3806 19.8112 18.2373C20.1477 18.0942 20.2239 18.4202 20.4487 18.4214C20.6736 18.4223 21.8698 17.7765 22.2063 17.6696C22.5429 17.5624 23.069 17.9269 23.2942 18.0365C23.5196 18.1462 23.9693 18.1846 24.4936 18.1508C25.0177 18.1171 28.084 16.7194 28.084 16.7194C28.084 16.7194 29.6406 12.8168 29.8626 12.1663C30.0845 11.5157 30.1916 10.2853 30.1916 10.2853C30.1916 10.2853 30.0404 9.92269 30.0396 9.74158C30.0388 9.56058 29.9618 9.08948 29.9618 9.08948C29.9618 9.08948 29.9617 9.05333 29.6991 8.97951C29.4366 8.90609 29.1734 8.68763 29.1722 8.47037C29.1714 8.25312 30.5888 6.81176 30.5888 6.81176C30.5888 6.81176 30.5105 6.01459 30.5465 5.68921C30.5828 5.36344 30.8429 4.89415 30.8429 4.89415C30.8429 4.89415 30.6915 4.53142 30.4277 4.16801C30.1639 3.80474 30.4252 3.62508 30.4989 3.29941C30.5725 2.97393 31.618 2.18242 32.1032 1.78656C32.5886 1.39052 32.7003 1.2101 33.1487 0.958905C33.5972 0.707422 34.6468 0.893538 34.6468 0.893538C34.6468 0.893538 34.7588 0.749123 35.2455 0.715188C35.7324 0.681289 36.1079 0.900289 36.1079 0.900289C36.1079 0.900289 36.6305 0.43191 37.4924 0.508455L37.2442 0.500827ZM61.5743 23.0505L61.5277 23.0673C61.4474 23.1446 61.4791 23.3197 61.5724 23.5541L61.5719 23.5546C61.8694 24.3032 62.7946 25.6596 62.741 26.4034C62.6701 27.3807 60.0141 28.2369 60.0141 28.2369C60.0141 28.2369 59.9813 29.2867 59.9082 29.7209C59.835 30.1548 59.5725 30.1175 59.5752 30.733C59.5779 31.3484 60.2166 31.7859 60.5539 31.86C60.8918 31.9339 63.5391 29.1223 64.7334 27.9696C65.9271 26.8167 67.5674 25.0143 67.5674 25.0143C67.5674 25.0143 65.092 24.3511 64.1542 23.9846C63.8415 23.8626 63.4621 23.7048 63.0888 23.5541L62.8662 23.4643C62.2044 23.1999 61.6132 22.9848 61.5277 23.0673L61.5743 23.0505ZM36.045 21.2097C36.045 21.2097 35.3347 21.5323 34.0268 22.2502C32.8737 22.8831 31.7495 23.4314 31.499 23.5541L31.4526 23.5856C31.5067 23.6684 32.2413 24.7916 33.2565 26.1205C34.3114 27.5011 35.0284 28.7353 36.0098 30.4053C36.9908 32.0752 36.9508 31.4595 37.2128 31.4245C37.4749 31.3896 37.429 29.3982 37.3878 28.493C37.3463 27.5877 37.6039 26.5028 37.6039 26.5028C37.6039 26.5028 37.0114 24.8968 36.701 23.5541L36.6325 23.2382C36.591 23.0326 36.5585 22.8375 36.5385 22.6604C36.4034 21.4674 36.1318 21.2527 36.0618 21.2166L36.045 21.2097ZM61.9742 13.584C61.7105 13.2569 61.4496 13.5093 61.4496 13.5093C61.4496 13.5093 60.9283 14.2669 60.6685 14.8089C60.4082 15.3506 60.1489 16.001 60.1489 16.001L60.2041 16.024C60.4201 16.1168 61.2429 16.4976 62.1772 17.2777C63.2678 18.1878 64.7678 18.5571 64.7678 18.5571C64.7678 18.5571 64.7553 18.526 64.7326 18.4696L64.6358 18.2312C64.3892 17.6276 63.8498 16.3353 63.4818 15.6548C62.9905 14.7475 62.2378 13.911 61.9742 13.584ZM32.7128 12.8675L32.4187 14.2054L32.3848 15.0382C32.3848 15.0382 34.3664 14.1424 34.328 13.8887L34.1001 13.1636L33.5002 13.0522C33.0877 12.9778 32.7128 12.8675 32.7128 12.8675Z" clip-rule="evenodd"/>
</svg>
